{
.appVersion = "3151";
.formatVersion = 3;
DisplayStrings = (
xylophone,
"/W.007",
"vi
n/G.004 or
",
"hoho
rarity
curvature",
"/_corner.rightSerif  i",
I,
"hymnal
minh
inhale",
Jc,
Qlioumn,
"ABIDE ACORN OF THE HABIT DACRON FOR THE BUDDHA GOUDA QUAALUDE BENCH BOGUS OF THE SCRIBE ROBOT FOR THE APLOMB JACOB RIBBON CENSUS CORAL OF THE SPICED JOCOSE FOR THE BASIC HAVOC SOCCER DEMURE DOCILE OF THE TIDBIT LODGER FOR THE CUSPID PERIOD BIDDER EBBING ECHOING OF THE BUSHED DECAL FOR THE APACHE ANODE NEEDS FEEDER FOCUS OF THE LIFER BEDFORD FOR THE SERIF PROOF BUFFER GENDER GOSPEL OF THE PIGEON DOGCART FOR THE SPRIG QUAHOG DIGGER HERALD HONORS OF THE DIHEDRAL MADHOUSE FOR THE PENH RIYADH BATHHOUSE IBSEN ICEMAN OF THE APHID NORDIC FOR THE SUSHI SAUDI SHIITE JENNIES JOGGER OF THE TIJERA ADJOURN FOR THE ORANJ KOWBOJ HAJJIS KEEPER KOSHER OF THE SHRIKE BOOKCASE FOR THE SHEIK LOGBOOK CHUKKAS LENDER LOCKER OF THE CHILD GIGOLO FOR THE UNCOIL GAMBOL ENROLLED MENACE MCCOY OF THE NIMBLE TOMCAT FOR THE DENIM RANDOM SUMMON NEBULA NOSHED OF THE INBRED BRONCO FOR THE COUSIN CARBON KENNEL OBSESS OCEAN OF THE PHOBIC DOCKSIDE FOR THE GAUCHO LIBIDO HOODED PENNIES PODIUM OF THE SNIPER OPCODE FOR THE SCRIP BISHOP HOPPER QUANTA QOPHS OF THE INQUEST OQOS FOR THE CINQ COQ SUQQU REDUCE ROGUE OF THE GIRDLE ORCHID FOR THE MEMOIR SENSOR SORREL SENIOR SCONCE OF THE DISBAR GODSON FOR THE HUBRIS AMENDS LESSEN TENDON TORQUE OF THE UNITED SCOTCH FOR THE NOUGHT FORGOT BITTERS UNDER UGLINESS OF THE RHUBARB SEDUCE FOR THE MANCHU HINDU CONTINUUM VERSED VOUCH OF THE DIVER OVOID FOR THE TELAVIV KARPOV FLIVVER WENCH WORKER OF THE UNWED SNOWCAP FOR THE ANDREW ESCROW GLOWWORM XENON XOCHITL OF THE MIXED BOXCAR FOR THE SUFFIX ICEBOX EXXON YEOMAN YONDER OF THE HYBRID ARROYO FOR THE DINGHY BRANDY SAYYID ZEBRA ZOMBIE OF THE PRIZED OZONE FOR THE FRANZ ARROZ BUZZING",
V,
"/_part.stem H",
"/_corner.leftSerif/_corner.rightSerif/_part.stem hoefotoll
cqocgdBefth
pbdr
drill
pridejuostc
hvao
habvoc",
"Abcdefghijklmnopqrstuvawxyz

glyphs = (
{
glyphname = A;
kernLeft = A;
kernRight = A;
lastChange = "2025-12-30 10:23:00 +0000";
layers = (
{
backgroundImage = {
angle = 90;
imagePath = "/Users/nathanlew/Documents/GitHub/font-nouveau/font-nouveau/Images/A_-Regular.tif";
locked = 1;
pos = (1407,-1568);
scale = (1.4,1.4);
};
hints = (
{
name = _corner.leftSerif;
origin = (0,10);
scale = (-1,-1);
type = Corner;
},
{
name = _corner.rightSerif;
options = 1;
origin = (0,11);
scale = (-1,-1);
type = Corner;
}
);
layerId = m01;
shapes = (
{
closed = 1;
nodes = (
(473,718,l),
(212,426,ls),
(4,194,o),
(-59,106,o),
(-25,-7,c),
(71,17,l),
(32,78,o),
(49,155,o),
(104,242,c),
(400,242,l),
(392,0,l),
(467,0,l),
(484,718,l)
);
},
{
closed = 1;
nodes = (
(135,287,o),
(150,306,o),
(166,325,cs),
(406,601,l),
(412,601,l),
(401,269,l),
(122,269,l)
);
}
);
width = 660;
}
);
unicode = (65,97);
},
{
glyphname = B;
kernLeft = B;
kernRight = B;
lastChange = "2025-12-30 07:39:11 +0000";
layers = (
{
backgroundImage = {
angle = -90;
imagePath = "/Users/nathanlew/Documents/Desktop/Images/B_-Regular.tif";
locked = 1;
pos = (-345,2917);
scale = (0.8,0.8);
};
hints = (
{
name = _corner.rightSerif;
options = 1;
origin = (0,13);
type = Corner;
},
{
name = _corner.leftSerif;
origin = (0,14);
type = Corner;
}
);
layerId = m01;
shapes = (
{
closed = 1;
nodes = (
(186,0,ls),
(483,0,o),
(607,137,o),
(607,285,cs),
(607,391,o),
(535,457,o),
(438,446,c),
(572,474,o),
(583,546,o),
(583,591,cs),
(583,689,o),
(443,700,o),
(396,700,cs),
(265,700,l),
(10,0,l)
);
},
{
closed = 1;
nodes = (
(227,404,l),
(314,415,ls),
(483,436,o),
(543,398,o),
(543,275,cs),
(543,195,o),
(499,23,o),
(201,23,cs),
(88,23,l)
);
},
{
closed = 1;
nodes = (
(327,678,l),
(371,678,ls),
(448,678,o),
(523,654,o),
(523,589,cs),
(523,545,o),
(520,463,o),
(295,436,cs),
(237,429,l)
);
}
);
width = 640;
}
);
unicode = (66,98);
},
{
glyphname = C;
kernLeft = C;
kernRight = C;
lastChange = "2025-12-30 10:22:30 +0000";
layers = (
{
backgroundImage = {
angle = -90;
imagePath = "/Users/nathanlew/Documents/Desktop/Images/Q_-Regular.tif";
pos = (-1421,1549);
scale = (0.88,0.88);
};
layerId = m01;
shapes = (
{
closed = 1;
nodes = (
(624,291,l),
(561,167,o),
(432,38,o),
(315,38,cs),
(158,38,o),
(113,170,o),
(113,295,cs),
(113,425,o),
(203,681,o),
(431,681,cs),
(519,681,o),
(597,636,o),
(573,524,c),
(585,524,l),
(625,644,l),
(583,686,o),
(525,710,o),
(456,710,cs),
(199,710,o),
(44,453,o),
(44,255,cs),
(44,97,o),
(139,-10,o),
(276,-10,cs),
(437,-10,o),
(574,134,o),
(644,291,c)
);
}
);
width = 665;
}
);
unicode = (67,99);
},
{
glyphname = D;
kernLeft = D;
kernRight = D;
lastChange = "2025-12-30 08:09:37 +0000";
layers = (
{
hints = (
{
name = _corner.rightSerif;
options = 1;
origin = (0,2);
type = Corner;
},
{
name = _corner.leftSerif;
origin = (0,3);
type = Corner;
}
);
layerId = m01;
shapes = (
{
closed = 1;
nodes = (
(80,0,l),
(335,700,l),
(265,700,l),
(10,0,l)
);
},
{
closed = 1;
nodes = (
(305,677,l),
(391,678,ls),
(558,680,o),
(602,600,o),
(602,475,cs),
(602,305,o),
(477,23,o),
(176,23,cs),
(68,23,l),
(68,0,l),
(186,0,l),
(483,0,o),
(678,247,o),
(678,485,cs),
(678,643,o),
(563,700,o),
(416,700,c),
(310,700,l)
);
}
);
width = 650;
}
);
unicode = (68,100);
},
{
glyphname = E;
kernLeft = E;
kernRight = E;
lastChange = "2025-12-30 08:27:31 +0000";
layers = (
{
layerId = m01;
shapes = (
{
closed = 1;
nodes = (
(449,680,ls),
(512,680,o),
(542,637,o),
(573,572,c),
(589,572,l),
(548,700,l),
(311,700,l),
(311,680,l)
);
},
{
closed = 1;
nodes = (
(375,0,l),
(528,203,l),
(510,203,l),
(495,186,ls),
(421,102,o),
(348,22,o),
(249,22,cs),
(76,22,l),
(76,0,l)
);
},
{
alignment = -1;
pos = (-9,0);
ref = _part.stem;
},
{
closed = 1;
nodes = (
(290,452,o),
(354,452,o),
(389,452,cs),
(414,452,o),
(424,430,o),
(410,379,c),
(425,379,l),
(487,539,l),
(470,539,l),
(450,494,o),
(422,480,o),
(393,480,cs),
(354,480,o),
(299,477,o),
(231,468,c),
(231,439,l)
);
}
);
width = 570;
}
);
unicode = (69,101);
},
{
glyphname = F;
kernLeft = F;
kernRight = F;
lastChange = "2025-12-29 21:57:49 +0000";
layers = (
{
layerId = m01;
shapes = (
{
alignment = -1;
pos = (-19,0);
ref = _part.stem;
},
{
closed = 1;
nodes = (
(439,680,ls),
(502,680,o),
(532,637,o),
(563,572,c),
(579,572,l),
(538,700,l),
(301,700,l),
(301,680,l)
);
},
{
closed = 1;
nodes = (
(270,442,o),
(334,442,o),
(369,442,cs),
(394,442,o),
(404,420,o),
(390,369,c),
(405,369,l),
(467,529,l),
(450,529,l),
(430,484,o),
(402,470,o),
(373,470,cs),
(334,470,o),
(279,467,o),
(211,458,c),
(211,429,l)
);
}
);
width = 490;
}
);
unicode = (70,102);
},
{
glyphname = G;
kernLeft = G;
kernRight = G;
lastChange = "2025-12-30 10:22:56 +0000";
layers = (
{
backgroundImage = {
angle = 90;
imagePath = "/Users/nathanlew/Documents/GitHub/font-nouveau/font-nouveau/Images/G_-Regular.tif";
locked = 1;
pos = (1547,-2009);
scale = (1.4,1.4);
};
hints = (
{
name = _corner.leftSerif;
origin = (0,1);
scale = (0.65,1);
type = Corner;
},
{
name = _corner.rightSerif;
options = 1;
origin = (0,2);
scale = (2,1);
type = Corner;
}
);
layerId = m01;
shapes = (
{
closed = 1;
nodes = (
(548,105,l),
(615,291,l),
(555,291,l),
(489,105,ls),
(469,48,o),
(420,15,o),
(322,15,cs),
(155,15,o),
(113,170,o),
(113,295,cs),
(113,425,o),
(203,681,o),
(431,681,cs),
(519,681,o),
(597,636,o),
(573,524,c),
(585,524,l),
(625,644,l),
(583,686,o),
(525,710,o),
(456,710,cs),
(199,710,o),
(44,453,o),
(44,255,cs),
(44,97,o),
(139,-10,o),
(316,-10,cs),
(435,-10,o),
(513,29,o),
(568,84,c)
);
}
);
width = 680;
}
);
unicode = (71,103);
},
{
glyphname = H;
kernLeft = H;
kernRight = H;
lastChange = "2025-12-30 08:57:21 +0000";
layers = (
{
backgroundImage = {
angle = -90;
imagePath = /Users/nathanlew/Documents/Downloads/IMG_9975.HEIC;
locked = 1;
pos = (-285,2959);
scale = (0.8,0.8);
};
layerId = m01;
shapes = (
{
alignment = -1;
pos = (-19,0);
ref = _part.stem;
},
{
alignment = -1;
pos = (359,2);
ref = _part.stem;
},
{
closed = 1;
nodes = (
(309,408,o),
(423,434,o),
(535,446,c),
(543,429,l),
(561,480,l),
(424,466,o),
(295,434,o),
(211,369,c),
(184,373,l),
(182,315,l)
);
}
);
width = 630;
}
);
unicode = (72,104);
},
{
glyphname = I;
kernLeft = I;
kernRight = I;
lastChange = "2025-12-30 07:26:09 +0000";
layers = (
{
hints = (
{
name = _corner.rightSerif;
options = 1;
origin = (0,0);
scale = (1.25,1);
type = Corner;
},
{
name = _corner.leftSerif;
origin = (0,1);
scale = (1.25,1);
type = Corner;
},
{
name = _corner.rightSerif;
options = 1;
origin = (0,2);
scale = (1.25,1);
type = Corner;
},
{
name = _corner.leftSerif;
origin = (0,3);
scale = (1.25,1);
type = Corner;
}
);
layerId = m01;
shapes = (
{
closed = 1;
nodes = (
(91,0,l),
(346,700,l),
(282,700,l),
(27,0,l)
);
}
);
width = 300;
}
);
unicode = (73,105);
},
{
glyphname = J;
kernLeft = J;
kernRight = J;
lastChange = "2025-12-30 05:59:04 +0000";
layers = (
{
hints = (
{
name = _corner.leftSerif;
origin = (0,13);
scale = (1.25,1);
type = Corner;
},
{
name = _corner.rightSerif;
options = 1;
origin = (0,14);
scale = (1.25,1);
type = Corner;
}
);
layerId = m01;
shapes = (
{
closed = 1;
nodes = (
(233,49,o),
(191,8,o),
(123,8,cs),
(74,8,o),
(47,74,o),
(41,110,c),
(-42,76,l),
(-26,37,o),
(11,-10,o),
(115,-10,cs),
(189,-10,o),
(292,15,o),
(346,164,cs),
(539,700,l),
(469,700,l),
(272,157,ls)
);
}
);
width = 490;
}
);
unicode = (74,106);
},
{
glyphname = K;
kernLeft = K;
kernRight = K;
lastChange = "2025-12-30 08:40:40 +0000";
layers = (
{
hints = (
{
name = _corner.rightSerif;
options = 1;
origin = (0,0);
scale = (0.8,1);
type = Corner;
},
{
name = _corner.leftSerif;
origin = (0,13);
scale = (0.8,1);
type = Corner;
},
{
name = _corner.rightSerif;
options = 1;
origin = (0,14);
scale = (0.8,1);
type = Corner;
},
{
name = _corner.leftSerif;
origin = (0,15);
scale = (0.8,1);
type = Corner;
}
);
layerId = m01;
shapes = (
{
closed = 1;
nodes = (
(70,0,l),
(157,239,l),
(600,428,o),
(706,563,o),
(647,707,c),
(551,683,l),
(575,656,o),
(585,635,o),
(585,583,cs),
(585,454,o),
(327,344,o),
(175,275,c),
(169,275,l),
(325,700,l),
(255,700,l),
(0,0,l)
);
},
{
closed = 1;
nodes = (
(291,310,l),
(357,116,o),
(452,28,o),
(614,-6,c),
(615,13,l),
(469,51,o),
(408,153,o),
(360,345,c)
);
}
);
width = 730;
}
);
unicode = (75,107);
},
{
glyphname = L;
kernLeft = L;
kernRight = L;
lastChange = "2025-12-30 03:58:16 +0000";
layers = (
{
layerId = m01;
shapes = (
{
closed = 1;
nodes = (
(375,0,l),
(528,203,l),
(510,203,l),
(495,186,ls),
(421,102,o),
(348,22,o),
(249,22,cs),
(76,22,l),
(76,0,l)
);
},
{
alignment = -1;
pos = (-9,0);
ref = _part.stem;
}
);
width = 570;
}
);
unicode = (76,108);
},
{
glyphname = M;
kernLeft = M;
kernRight = M;
lastChange = "2025-12-30 10:12:33 +0000";
layers = (
{
backgroundImage = {
angle = 90;
imagePath = "/Users/nathanlew/Documents/Desktop/Images/M_-Regular.tif";
locked = 1;
pos = (1980,-1107);
scale = (0.8,0.8);
};
hints = (
{
name = _corner.rightSerif;
options = 1;
origin = (0,26);
scale = (0.8,1);
type = Corner;
},
{
name = _corner.leftSerif;
origin = (0,25);
scale = (0.8,1);
type = Corner;
},
{
name = _corner.rightSerif;
options = 1;
origin = (0,9);
scale = (0.8,1);
type = Corner;
},
{
name = _corner.leftSerif;
origin = (0,10);
scale = (0.8,1);
type = Corner;
},
{
name = _corner.leftSerif;
origin = (0,8);
scale = (0.8,1);
type = Corner;
}
);
layerId = m01;
shapes = (
{
closed = 1;
nodes = (
(296,543,o),
(330,463,o),
(368,262,c),
(384,262,l),
(465,382,o),
(588,536,o),
(657,603,c),
(667,603,l),
(450,0,l),
(520,0,l),
(775,700,l),
(730,700,l),
(658,668,o),
(505,494,o),
(415,355,c),
(410,355,l),
(395,466,o),
(329,650,o),
(266,712,c),
(170,678,l),
(171,678,l),
(171,663,l),
(217,660,o),
(225,643,o),
(205,587,cs),
(-9,0,l),
(29,0,l),
(250,606,l),
(258,607,l)
);
},
{
closed = 0;
nodes = (
(194,612,l)
);
}
);
width = 690;
}
);
unicode = (77,109);
},
{
glyphname = N;
kernLeft = N;
kernRight = N;
lastChange = "2025-12-30 08:26:50 +0000";
layers = (
{
hints = (
{
name = _corner.rightSerif;
options = 1;
origin = (0,0);
scale = (0.8,1);
type = Corner;
},
{
name = _corner.leftSerif;
origin = (0,27);
scale = (0.8,1);
type = Corner;
},
{
name = _corner.rightSerif;
options = 1;
origin = (0,21);
scale = (0.8,1);
type = Corner;
},
{
name = _corner.leftSerif;
origin = (0,20);
scale = (0.8,1);
type = Corner;
}
);
layerId = m01;
shapes = (
{
closed = 1;
nodes = (
(453,0,l),
(626,480,ls),
(646,537,o),
(668,641,o),
(617,707,c),
(535,683,l),
(591,659,o),
(625,565,o),
(592,470,cs),
(550,350,l),
(543,348,l),
(520,452,o),
(363,674,o),
(256,709,c),
(178,678,l),
(179,678,l),
(179,663,l),
(225,660,o),
(233,643,o),
(213,587,cs),
(-1,0,l),
(40,0,l),
(267,618,l),
(272,620,l),
(331,597,o),
(475,403,o),
(513,256,c),
(420,0,l)
);
}
);
width = 630;
}
);
unicode = (78,110);
},
{
glyphname = O;
kernLeft = O;
kernRight = O;
lastChange = "2025-12-30 08:20:16 +0000";
layers = (
{
backgroundImage = {
angle = -89;
imagePath = /Users/nathanlew/Documents/Downloads/IMG_9975.HEIC;
locked = 1;
pos = (-427,1301);
scale = (0.8,0.8);
};
layerId = m01;
shapes = (
{
closed = 1;
nodes = (
(558,-10,o),
(693,247,o),
(693,445,cs),
(693,603,o),
(598,710,o),
(451,710,cs),
(194,710,o),
(59,453,o),
(59,255,cs),
(59,97,o),
(154,-10,o),
(301,-10,cs)
);
},
{
closed = 1;
nodes = (
(169,18,o),
(133,170,o),
(133,295,cs),
(133,425,o),
(198,681,o),
(426,681,cs),
(583,681,o),
(619,540,o),
(619,415,cs),
(619,285,o),
(554,18,o),
(326,18,cs)
);
}
);
width = 680;
}
);
unicode = (79,111);
},
{
glyphname = P;
kernLeft = P;
kernRight = P;
lastChange = "2025-12-30 08:33:47 +0000";
layers = (
{
hints = (
{
name = _corner.rightSerif;
options = 1;
origin = (1,0);
type = Corner;
},
{
name = _corner.rightSerif;
options = 1;
origin = (1,2);
type = Corner;
},
{
name = _corner.leftSerif;
origin = (1,3);
type = Corner;
}
);
layerId = m01;
shapes = (
{
closed = 1;
nodes = (
(287,678,l),
(392,678,ls),
(472,678,o),
(532,625,o),
(532,560,cs),
(532,500,o),
(476,356,o),
(232,314,cs),
(163,302,l),
(154,271,l),
(232,286,ls),
(517,341,o),
(612,482,o),
(612,570,cs),
(612,668,o),
(504,700,o),
(407,700,cs),
(287,700,l)
);
},
{
closed = 1;
nodes = (
(80,0,l),
(335,700,l),
(265,700,l),
(10,0,l)
);
}
);
width = 520;
}
);
unicode = (80,112);
},
{
glyphname = Q;
kernLeft = Q;
kernRight = Q;
lastChange = "2025-12-30 10:21:53 +0000";
layers = (
{
backgroundImage = {
angle = -90;
imagePath = "/Users/nathanlew/Documents/Desktop/Images/Q_-Regular.tif";
pos = (-1132,2377);
scale = (0.88,0.88);
};
layerId = m01;
shapes = (
{
closed = 1;
nodes = (
(239,-24,o),
(443,-167,o),
(557,-137,c),
(557,-117,l),
(449,-144,o),
(278,-13,o),
(356,222,c),
(278,181,l)
);
},
{
closed = 1;
nodes = (
(553,-10,o),
(708,247,o),
(708,445,cs),
(708,603,o),
(613,710,o),
(466,710,cs),
(209,710,o),
(54,453,o),
(54,255,cs),
(54,97,o),
(149,-10,o),
(296,-10,cs)
);
},
{
closed = 1;
nodes = (
(164,18,o),
(128,170,o),
(128,295,cs),
(128,425,o),
(213,681,o),
(441,681,cs),
(598,681,o),
(634,540,o),
(634,415,cs),
(634,285,o),
(549,18,o),
(321,18,cs)
);
}
);
width = 731;
}
);
unicode = (81,113);
},
{
glyphname = R;
kernLeft = R;
kernRight = R;
lastChange = "2025-12-30 08:34:04 +0000";
layers = (
{
hints = (
{
name = _corner.rightSerif;
options = 1;
origin = (1,0);
type = Corner;
},
{
name = _corner.rightSerif;
options = 1;
origin = (1,2);
type = Corner;
},
{
name = _corner.leftSerif;
origin = (1,3);
type = Corner;
}
);
layerId = m01;
shapes = (
{
closed = 1;
nodes = (
(303,358,l),
(293,152,o),
(449,36,o),
(604,-6,c),
(605,13,l),
(464,64,o),
(361,166,o),
(370,385,c)
);
},
{
closed = 1;
nodes = (
(80,0,l),
(335,700,l),
(265,700,l),
(10,0,l)
);
},
{
closed = 1;
nodes = (
(287,678,l),
(392,678,ls),
(452,678,o),
(522,651,o),
(522,586,cs),
(522,531,o),
(468,397,o),
(232,356,cs),
(163,344,l),
(154,311,l),
(232,326,ls),
(507,379,o),
(592,513,o),
(592,596,cs),
(592,684,o),
(484,700,o),
(407,700,cs),
(287,700,l)
);
}
);
width = 710;
}
);
unicode = (82,114);
},
{
glyphname = S;
kernLeft = S;
kernRight = S;
lastChange = "2025-12-30 10:09:34 +0000";
layers = (
{
backgroundImage = {
angle = -90;
imagePath = "/Users/nathanlew/Documents/Desktop/Images/S_-Regular.tif";
locked = 1;
pos = (-1150,1378);
scale = (0.88,0.88);
};
layerId = m01;
shapes = (
{
closed = 1;
nodes = (
(439,-13,o),
(541,70,o),
(541,222,cs),
(541,372,o),
(252,436,o),
(252,555,cs),
(252,633,o),
(281,689,o),
(400,689,cs),
(474,689,o),
(563,623,o),
(528,505,c),
(538,505,l),
(581,624,l),
(555,659,o),
(519,713,o),
(411,713,cs),
(296,713,o),
(207,644,o),
(207,539,cs),
(207,372,o),
(493,333,o),
(493,168,cs),
(493,79,o),
(414,10,o),
(309,10,cs),
(133,10,o),
(34,172,o),
(119,374,c),
(101,374,l),
(35,185,l),
(53,128,o),
(101,-13,o),
(285,-13,cs)
);
}
);
width = 600;
}
);
unicode = (83,115);
},
{
glyphname = T;
kernLeft = T;
kernRight = T;
lastChange = "2025-12-30 10:12:10 +0000";
layers = (
{
hints = (
{
name = _corner.rightSerif;
options = 1;
origin = (2,0);
type = Corner;
},
{
name = _corner.leftSerif;
origin = (2,3);
type = Corner;
}
);
layerId = m01;
shapes = (
{
closed = 1;
nodes = (
(589,675,ls),
(652,675,o),
(672,637,o),
(702,572,c),
(724,572,l),
(675,710,l),
(664,704,ls),
(660,702,o),
(651,700,o),
(637,700,cs),
(489,700,l),
(479,675,l)
);
},
{
closed = 1;
nodes = (
(446,700,l),
(301,700,l),
(288,700,o),
(274,701,o),
(267,705,cs),
(258,710,l),
(137,572,l),
(161,572,l),
(225,637,o),
(267,675,o),
(331,675,cs),
(446,675,l)
);
},
{
closed = 1;
nodes = (
(255,0,l),
(510,700,l),
(440,700,l),
(185,0,l)
);
}
);
width = 630;
}
);
unicode = (84,116);
},
{
glyphname = U;
kernLeft = U;
kernRight = U;
lastChange = "2025-12-30 10:22:20 +0000";
layers = (
{
hints = (
{
name = _corner.leftSerif;
origin = (0,3);
scale = (0.8,1);
type = Corner;
},
{
name = _corner.rightSerif;
options = 1;
origin = (0,4);
scale = (0.8,1);
type = Corner;
},
{
name = _corner.leftSerif;
origin = (0,12);
scale = (0.8,1);
type = Corner;
},
{
name = _corner.rightSerif;
options = 1;
origin = (0,13);
scale = (0.8,1);
type = Corner;
}
);
layerId = m01;
shapes = (
{
closed = 1;
nodes = (
(412,-10,o),
(508,96,o),
(577,287,cs),
(725,700,l),
(688,700,l),
(532,274,ls),
(488,153,o),
(395,18,o),
(296,18,cs),
(151,18,o),
(111,112,o),
(181,304,cs),
(325,700,l),
(255,700,l),
(97,266,ls),
(47,129,o),
(115,-10,o),
(266,-10,cs)
);
}
);
width = 650;
}
);
unicode = (85,117);
},
{
glyphname = V;
kernLeft = V;
kernRight = V;
lastChange = "2025-12-30 08:54:43 +0000";
layers = (
{
hints = (
{
name = _corner.leftSerif;
origin = (0,11);
scale = (0.8,1);
type = Corner;
},
{
name = _corner.rightSerif;
options = 1;
origin = (0,12);
scale = (0.8,1);
type = Corner;
}
);
layerId = m01;
shapes = (
{
closed = 1;
nodes = (
(260,-18,l),
(503,274,ls),
(702,513,o),
(774,594,o),
(740,707,c),
(644,683,l),
(695,603,o),
(645,496,o),
(545,375,cs),
(324,108,l),
(318,108,l),
(324,700,l),
(255,700,l),
(246,-18,l)
);
}
);
width = 660;
}
);
unicode = (86,118);
},
{
glyphname = W;
kernLeft = W;
kernRight = W;
lastChange = "2025-12-30 08:53:35 +0000";
layers = (
{
backgroundImage = {
angle = -90;
imagePath = "/Users/nathanlew/Documents/Desktop/Images/W_-Regular.tif";
locked = 1;
pos = (-173,2149);
scale = (0.8,0.8);
};
hints = (
{
name = _corner.leftSerif;
origin = (0,30);
scale = (0.8,1);
type = Corner;
},
{
name = _corner.rightSerif;
options = 1;
origin = (0,31);
scale = (0.8,1);
type = Corner;
}
);
layerId = m01;
shapes = (
{
closed = 1;
nodes = (
(288,-18,l),
(548,344,l),
(555,344,l),
(574,-18,l),
(580,-18,l),
(856,319,ls),
(955,439,o),
(990,594,o),
(956,707,c),
(860,683,l),
(901,593,o),
(913,433,o),
(783,277,cs),
(642,108,l),
(633,108,l),
(620,331,ls),
(618,359,o),
(636,394,o),
(683,397,c),
(683,412,l),
(477,412,l),
(477,397,l),
(496,396,o),
(518,387,o),
(518,374,cs),
(518,359,o),
(500,331,o),
(490,317,cs),
(346,115,l),
(337,115,l),
(314,700,l),
(248,700,l),
(274,-18,l)
);
}
);
width = 900;
}
);
unicode = (87,119);
},
{
glyphname = X;
kernLeft = X;
kernRight = X;
lastChange = "2025-12-30 10:17:12 +0000";
layers = (
{
backgroundImage = {
angle = -90;
imagePath = "/Users/nathanlew/Documents/Desktop/Images/X_-Regular.tif";
locked = 1;
pos = (-333,2041);
scale = (0.8,0.8);
};
hints = (
{
name = _corner.rightSerif;
options = 1;
origin = (0,0);
scale = (0.8,1);
type = Corner;
},
{
name = _corner.leftSerif;
origin = (0,1);
type = Corner;
},
{
name = _corner.rightSerif;
options = 1;
origin = (0,2);
scale = (0.8,1);
type = Corner;
},
{
name = _corner.leftSerif;
origin = (0,3);
type = Corner;
}
);
layerId = m01;
shapes = (
{
closed = 1;
nodes = (
(519,0,l),
(304,700,l),
(239,700,l),
(454,0,l)
);
},
{
closed = 1;
nodes = (
(68,151,o),
(130,318,o),
(337,417,c),
(334,440,l),
(94,327,o),
(-32,152,o),
(-6,-12,c),
(90,12,l)
);
},
{
closed = 1;
nodes = (
(601,586,o),
(516,516,o),
(364,455,c),
(371,429,l),
(488,483,o),
(698,562,o),
(643,707,c),
(547,683,l)
);
}
);
width = 700;
}
);
unicode = (88,120);
},
{
glyphname = Y;
kernLeft = Y;
kernRight = Y;
lastChange = "2025-12-30 10:24:23 +0000";
layers = (
{
backgroundImage = {
angle = 90;
imagePath = "/Users/nathanlew/Documents/GitHub/font-nouveau/font-nouveau/Images/Y_-Regular.tif";
locked = 1;
pos = (2471,-449);
scale = (0.84,0.84);
};
hints = (
{
name = _corner.rightSerif;
options = 1;
origin = (0,0);
type = Corner;
},
{
name = _corner.leftSerif;
origin = (0,12);
type = Corner;
},
{
name = _corner.rightSerif;
options = 1;
origin = (0,13);
scale = (0.8,1);
type = Corner;
},
{
name = _corner.leftSerif;
origin = (0,15);
type = Corner;
}
);
layerId = m01;
shapes = (
{
closed = 1;
nodes = (
(322,0,l),
(415,243,l),
(538,351,ls),
(677,473,o),
(773,622,o),
(748,707,c),
(649,683,l),
(673,595,o),
(652,485,o),
(521,373,cs),
(418,285,l),
(409,285,l),
(306,700,l),
(233,700,l),
(341,252,l),
(248,0,l)
);
}
);
width = 650;
}
);
unicode = (89,121);
},
{
glyphname = Z;
kernLeft = Z;
kernRight = Z;
lastChange = "2025-12-30 10:24:29 +0000";
layers = (
{
layerId = m01;
shapes = (
{
closed = 1;
nodes = (
(88,0,l),
(138,0,l),
(106,20,l),
(95,32,l),
(673,694,l),
(670,700,l),
(594,700,l),
(528,700,l),
(559,675,l),
(564,669,l),
(-24,0,l)
);
},
{
closed = 1;
nodes = (
(299,0,ls),
(416,0,o),
(511,25,o),
(565,68,c),
(486,131,l),
(425,70,o),
(363,22,o),
(289,22,cs),
(86,22,l),
(86,0,l)
);
},
{
closed = 1;
nodes = (
(541,700,l),
(331,700,l),
(303,700,o),
(280,711,o),
(273,720,c),
(130,546,l),
(153,546,l),
(218,625,o),
(287,675,o),
(362,675,cs),
(566,675,l)
);
}
);
width = 660;
}
);
unicode = (90,122);
},
{
glyphname = A.001;
lastChange = "2025-12-05 03:06:07 +0000";
layers = (
{
backgroundImage = {
angle = 90;
imagePath = /Users/nathanlew/Documents/Downloads/IMG_9972.HEIC;
locked = 1;
pos = (1001,-1869);
scale = (0.8,0.8);
};
hints = (
{
name = _corner.leftSerif;
origin = (0,16);
type = Corner;
},
{
name = _corner.rightSerif;
options = 1;
origin = (0,16);
type = Corner;
},
{
name = _corner.rightSerif;
options = 1;
origin = (1,0);
type = Corner;
},
{
name = _corner.leftSerif;
origin = (1,9);
type = Corner;
},
{
name = _corner.rightSerif;
options = 1;
origin = (1,9);
type = Corner;
}
);
layerId = m01;
shapes = (
{
closed = 1;
nodes = (
(20,0,l),
(71,0,l),
(87,20,l),
(65,24,o),
(55,43,o),
(84,71,c),
(133,118,l),
(242,224,o),
(460,197,o),
(530,183,c),
(546,224,l),
(461,238,o),
(304,233,o),
(223,201,c),
(650,611,l),
(653,641,l),
(-30,0,l)
);
},
{
closed = 1;
nodes = (
(512,0,l),
(695,500,l),
(738,600,o),
(724,648,o),
(687,732,c),
(615,664,l),
(633,624,o),
(660,560,o),
(615,447,c),
(452,0,l)
);
}
);
width = 680;
}
);
},
{
glyphname = A.002;
lastChange = "2025-12-05 03:06:07 +0000";
layers = (
{
backgroundImage = {
angle = 90;
imagePath = /Users/nathanlew/Documents/Downloads/IMG_9972.HEIC;
locked = 1;
pos = (1001,-1869);
scale = (0.8,0.8);
};
hints = (
{
name = _corner.rightSerif;
options = 1;
origin = (1,0);
type = Corner;
},
{
name = _corner.leftSerif;
origin = (1,0);
type = Corner;
},
{
name = _corner.leftSerif;
origin = (1,4);
type = Corner;
}
);
layerId = m01;
shapes = (
{
closed = 1;
nodes = (
(60,0,l),
(174,0,l),
(174,20,l),
(152,24,o),
(125,43,o),
(154,71,cs),
(185,101,o),
(248,170,o),
(279,200,c),
(451,200,o),
(502,298,o),
(617,298,c),
(626,332,l),
(508,332,o),
(422,234,o),
(312,234,c),
(398,362,o),
(573,656,o),
(742,656,c),
(810,700,l),
(381,700,o),
(260,20,o),
(-40,20,c),
(-40,0,l),
(20,0,l)
);
},
{
closed = 1;
nodes = (
(580,0,l),
(835,700,l),
(810,700,l),
(738,680,l),
(490,0,l)
);
}
);
width = 760;
}
);
},
{
glyphname = A.003;
lastChange = "2025-12-05 03:06:07 +0000";
layers = (
{
backgroundImage = {
angle = 90;
imagePath = /Users/nathanlew/Documents/Downloads/IMG_9972.HEIC;
locked = 1;
pos = (1001,-1869);
scale = (0.8,0.8);
};
hints = (
{
name = _corner.leftSerif;
origin = (0,16);
type = Corner;
},
{
name = _corner.rightSerif;
options = 1;
origin = (0,16);
type = Corner;
},
{
name = _corner.rightSerif;
options = 1;
origin = (1,0);
type = Corner;
},
{
name = _corner.leftSerif;
origin = (1,3);
type = Corner;
}
);
layerId = m01;
shapes = (
{
closed = 1;
nodes = (
(60,0,l),
(111,0,l),
(127,20,l),
(105,24,o),
(95,43,o),
(124,71,c),
(173,118,l),
(282,224,o),
(500,197,o),
(570,183,c),
(586,224,l),
(501,238,o),
(344,233,o),
(263,201,c),
(690,611,l),
(693,641,l),
(10,0,l)
);
},
{
closed = 1;
nodes = (
(540,0,l),
(795,700,l),
(705,700,l),
(450,0,l)
);
}
);
width = 720;
}
);
},
{
glyphname = A.004;
lastChange = "2025-12-05 03:06:07 +0000";
layers = (
{
backgroundImage = {
angle = 90;
imagePath = /Users/nathanlew/Documents/Downloads/IMG_9972.HEIC;
locked = 1;
pos = (1001,-1869);
scale = (0.8,0.8);
};
hints = (
{
name = _corner.leftSerif;
origin = (0,19);
type = Corner;
},
{
name = _corner.rightSerif;
options = 1;
origin = (0,19);
type = Corner;
},
{
name = _corner.rightSerif;
options = 1;
origin = (1,0);
type = Corner;
},
{
name = _corner.leftSerif;
origin = (1,0);
type = Corner;
},
{
name = _corner.leftSerif;
origin = (1,3);
type = Corner;
}
);
layerId = m01;
shapes = (
{
closed = 1;
nodes = (
(60,0,l),
(111,0,l),
(127,20,l),
(105,24,o),
(95,43,o),
(124,71,c),
(217,160,l),
(243,185,o),
(261,191,o),
(277,191,cs),
(327,191,o),
(397,68,o),
(512,68,c),
(521,102,l),
(403,102,o),
(352,214,o),
(282,214,c),
(690,597,l),
(693,641,l),
(10,0,l)
);
},
{
closed = 1;
nodes = (
(540,0,l),
(795,700,l),
(705,700,l),
(450,0,l)
);
}
);
width = 720;
}
);
},
{
glyphname = A.005;
layers = (
{
backgroundImage = {
angle = 90;
imagePath = /Users/nathanlew/Documents/Downloads/IMG_9972.HEIC;
locked = 1;
pos = (1001,-1869);
scale = (0.8,0.8);
};
hints = (
{
name = _corner.rightSerif;
options = 1;
origin = (1,0);
type = Corner;
},
{
name = _corner.leftSerif;
origin = (1,0);
type = Corner;
},
{
name = _corner.leftSerif;
origin = (1,4);
type = Corner;
}
);
layerId = m01;
shapes = (
{
closed = 1;
nodes = (
(80,0,l),
(214,0,l),
(214,20,l),
(141,24,o),
(155,53,o),
(184,81,cs),
(215,111,o),
(261,152,o),
(292,182,c),
(411,243,o),
(550,280,o),
(665,280,c),
(674,314,l),
(556,314,o),
(419,275,o),
(332,226,c),
(418,354,o),
(690,656,o),
(812,656,c),
(850,700,l),
(581,700,o),
(202,20,o),
(10,20,c),
(-21,20,l),
(-20,0,l),
(40,0,l)
);
},
{
closed = 1;
nodes = (
(620,0,l),
(875,700,l),
(850,700,l),
(778,680,l),
(530,0,l)
);
}
);
width = 800;
}
);
},
{
glyphname = A.006;
lastChange = "2025-12-05 03:06:07 +0000";
layers = (
{
backgroundImage = {
angle = 90;
imagePath = /Users/nathanlew/Documents/Downloads/IMG_9972.HEIC;
locked = 1;
pos = (1001,-1869);
scale = (0.8,0.8);
};
hints = (
{
name = _corner.leftSerif;
origin = (0,21);
type = Corner;
},
{
name = _corner.rightSerif;
options = 1;
origin = (0,21);
type = Corner;
},
{
name = _corner.rightSerif;
options = 1;
origin = (1,0);
type = Corner;
},
{
name = _corner.leftSerif;
origin = (1,4);
type = Corner;
}
);
layerId = m01;
shapes = (
{
closed = 1;
nodes = (
(40,0,l),
(107,0,l),
(107,20,l),
(58,20,o),
(59,45,o),
(75,73,c),
(124,172,l),
(261,285,o),
(490,257,o),
(550,193,c),
(566,228,l),
(491,292,o),
(246,291,o),
(152,223,c),
(280,451,o),
(452,644,o),
(679,652,c),
(725,700,l),
(416,700,o),
(193,391,o),
(135,274,c),
(-10,0,l)
);
},
{
closed = 1;
nodes = (
(520,0,l),
(755,700,l),
(725,700,l),
(674,680,l),
(430,0,l)
);
}
);
width = 680;
}
);
},
{
glyphname = A.007;
layers = (
{
backgroundImage = {
angle = 90;
imagePath = "/Users/nathanlew/Documents/GitHub/font-nouveau/font-nouveau/Images/A_-Regular.tif";
locked = 1;
pos = (1596,-1568);
scale = (1.4,1.4);
};
hints = (
{
name = _corner.leftSerif;
origin = (1,2);
scale = (-1,-1);
type = Corner;
},
{
name = _corner.rightSerif;
options = 1;
origin = (1,3);
scale = (-1,-1);
type = Corner;
}
);
layerId = m01;
shapes = (
{
closed = 1;
nodes = (
(166,325,l),
(542,325,l),
(542,352,l),
(166,352,l)
);
},
{
closed = 1;
nodes = (
(566,720,l),
(483,631,l),
(492,0,l),
(592,0,l),
(579,720,l)
);
},
{
closed = 1;
nodes = (
(184,15,l),
(-53,315,o),
(392,442,o),
(520,632,c),
(483,631,l),
(264,396,o),
(-112,275,o),
(92,-20,c)
);
}
);
width = 800;
}
);
},
{
glyphname = A.008;
layers = (
{
backgroundImage = {
angle = 90;
imagePath = "/Users/nathanlew/Documents/GitHub/font-nouveau/font-nouveau/Images/A_-Regular.tif";
locked = 1;
pos = (1596,-1568);
scale = (1.4,1.4);
};
hints = (
{
name = _corner.leftSerif;
origin = (0,2);
scale = (-1,-1);
type = Corner;
},
{
name = _corner.rightSerif;
options = 1;
origin = (0,3);
scale = (-1,-1);
type = Corner;
}
);
layerId = m01;
shapes = (
{
closed = 1;
nodes = (
(566,720,l),
(483,631,l),
(492,0,l),
(592,0,l),
(579,720,l)
);
},
{
closed = 1;
nodes = (
(184,15,l),
(-53,315,o),
(392,442,o),
(520,632,c),
(483,631,l),
(264,396,o),
(-112,275,o),
(92,-20,c)
);
},
{
closed = 1;
nodes = (
(239,298,o),
(387,270,o),
(499,282,c),
(505,268,l),
(523,316,l),
(386,302,o),
(224,315,o),
(134,255,c),
(109,262,l),
(109,204,l)
);
}
);
width = 800;
}
);
},
{
glyphname = A.009;
layers = (
{
backgroundImage = {
angle = 90;
imagePath = "/Users/nathanlew/Documents/GitHub/font-nouveau/font-nouveau/Images/A_-Regular.tif";
locked = 1;
pos = (1596,-1568);
scale = (1.4,1.4);
};
hints = (
{
name = _corner.leftSerif;
origin = (0,2);
scale = (-1,-1);
type = Corner;
},
{
name = _corner.rightSerif;
options = 1;
origin = (0,3);
scale = (-1,-1);
type = Corner;
}
);
layerId = m01;
shapes = (
{
closed = 1;
nodes = (
(516,720,l),
(433,631,l),
(442,0,l),
(542,0,l),
(529,720,l)
);
},
{
closed = 1;
nodes = (
(114,15,l),
(-41,210,o),
(276,405,o),
(427,584,c),
(447,584,l),
(433,631,l),
(214,396,o),
(-89,179,o),
(22,-20,c)
);
},
{
closed = 1;
nodes = (
(146,314,o),
(357,340,o),
(469,312,c),
(475,298,l),
(493,342,l),
(356,368,o),
(212,342,o),
(122,282,c),
(87,199,l)
);
}
);
width = 760;
}
);
},
{
glyphname = A.010;
kernLeft = A;
kernRight = A;
layers = (
{
backgroundImage = {
angle = 90;
imagePath = "/Users/nathanlew/Documents/GitHub/font-nouveau/font-nouveau/Images/A_-Regular.tif";
locked = 1;
pos = (1527,-1568);
scale = (1.4,1.4);
};
hints = (
{
name = _corner.leftSerif;
origin = (0,15);
scale = (-1,-1);
type = Corner;
},
{
name = _corner.rightSerif;
options = 1;
origin = (0,16);
scale = (-1,-1);
type = Corner;
}
);
layerId = m01;
shapes = (
{
closed = 1;
nodes = (
(432,720,l),
(354,642,l),
(174,448,o),
(-4,251,o),
(-4,83,cs),
(-4,47,o),
(4,13,o),
(23,-20,c),
(104,15,l),
(69,66,o),
(43,164,o),
(95,256,cs),
(129,316,o),
(332,333,o),
(418,309,c),
(473,0,l),
(583,0,l),
(445,720,l)
);
},
{
closed = 1;
nodes = (
(186,405,o),
(288,513,o),
(362,600,c),
(370,600,l),
(413,341,l),
(341,352,o),
(206,350,o),
(123,312,c)
);
}
);
width = 784;
}
);
},
{
glyphname = A.011;
kernLeft = A;
kernRight = A;
layers = (
{
backgroundImage = {
angle = 90;
imagePath = "/Users/nathanlew/Documents/GitHub/font-nouveau/font-nouveau/Images/A_-Regular.tif";
locked = 1;
pos = (1437,-1568);
scale = (1.4,1.4);
};
hints = (
{
name = _corner.leftSerif;
origin = (1,11);
scale = (-1,-1);
type = Corner;
},
{
name = _corner.rightSerif;
options = 1;
origin = (1,12);
scale = (-1,-1);
type = Corner;
}
);
layerId = m01;
shapes = (
{
closed = 1;
nodes = (
(116,242,l),
(485,242,l),
(490,269,l),
(121,269,l)
);
},
{
closed = 1;
nodes = (
(503,718,l),
(242,426,ls),
(34,194,o),
(-29,106,o),
(5,-7,c),
(101,17,l),
(50,97,o),
(95,205,o),
(196,325,cs),
(437,611,l),
(443,611,l),
(422,0,l),
(497,0,l),
(514,718,l)
);
}
);
width = 700;
}
);
},
{
glyphname = A.100;
lastChange = "2025-12-21 00:22:40 +0000";
layers = (
{
backgroundImage = {
angle = 90;
imagePath = /Users/nathanlew/Documents/Downloads/IMG_9972.HEIC;
locked = 1;
pos = (1001,-1869);
scale = (0.8,0.8);
};
hints = (
{
name = _corner.rightSerif;
options = 1;
origin = (1,0);
type = Corner;
},
{
name = _corner.leftSerif;
origin = (1,0);
type = Corner;
},
{
name = _corner.leftSerif;
origin = (1,4);
type = Corner;
}
);
layerId = m01;
shapes = (
{
closed = 1;
nodes = (
(104,5,l),
(71,123,o),
(153,231,o),
(266,325,c),
(274,325,l),
(387,393,o),
(530,503,o),
(616,572,c),
(650,572,l),
(643,627,l),
(451,468,o),
(-56,226,o),
(6,-33,c)
);
},
{
closed = 1;
nodes = (
(520,0,l),
(781,721,l),
(768,721,l),
(643,627,l),
(420,0,l)
);
},
{
closed = 1;
nodes = (
(252,310,l),
(579,310,l),
(579,337,l),
(252,337,l)
);
}
);
width = 720;
}
);
},
{
glyphname = B.001;
layers = (
{
backgroundImage = {
angle = -90;
imagePath = "/Users/nathanlew/Documents/Desktop/Images/B_-Regular.tif";
locked = 1;
pos = (-330,2917);
scale = (0.8,0.8);
};
layerId = m01;
shapes = (
{
alignment = -1;
pos = (13,0);
ref = _part.stem;
},
{
closed = 1;
nodes = (
(367,680,l),
(444,680,o),
(502,671,o),
(502,587,cs),
(502,500,o),
(400,450,o),
(215,450,c),
(209,432,l),
(364,432,o),
(599,469,o),
(599,582,cs),
(599,664,o),
(512,700,o),
(437,700,c),
(357,700,l),
(357,680,l)
);
},
{
closed = 1;
nodes = (
(272,0,l),
(456,0,o),
(622,47,o),
(622,247,cs),
(622,414,o),
(459,477,o),
(396,471,c),
(364,453,l),
(423,452,o),
(530,398,o),
(530,252,cs),
(530,78,o),
(420,20,o),
(297,20,c),
(102,20,l),
(102,0,l)
);
}
);
width = 640;
}
);
},
{
glyphname = B.002;
kernLeft = B;
kernRight = B;
layers = (
{
backgroundImage = {
angle = -90;
imagePath = "/Users/nathanlew/Documents/Desktop/Images/B_-Regular.tif";
locked = 1;
pos = (-345,2917);
scale = (0.8,0.8);
};
hints = (
{
name = _corner.rightSerif;
options = 1;
origin = (0,13);
type = Corner;
},
{
name = _corner.leftSerif;
origin = (0,14);
type = Corner;
}
);
layerId = m01;
shapes = (
{
closed = 1;
nodes = (
(186,0,ls),
(483,0,o),
(638,137,o),
(638,285,cs),
(638,391,o),
(535,457,o),
(438,446,c),
(572,474,o),
(603,546,o),
(603,591,cs),
(603,689,o),
(463,700,o),
(396,700,cs),
(265,700,l),
(10,0,l)
);
},
{
closed = 1;
nodes = (
(227,404,l),
(314,415,ls),
(483,436,o),
(574,398,o),
(574,275,cs),
(574,195,o),
(499,23,o),
(201,23,cs),
(88,23,l)
);
},
{
closed = 1;
nodes = (
(327,678,l),
(371,678,ls),
(468,678,o),
(543,654,o),
(543,589,cs),
(543,545,o),
(520,463,o),
(295,436,cs),
(237,429,l)
);
}
);
width = 660;
}
);
},
{
glyphname = B.100;
lastChange = "2025-12-22 01:14:24 +0000";
layers = (
{
backgroundImage = {
angle = -90;
imagePath = "/Users/nathanlew/Documents/Desktop/Images/B_-Regular.tif";
locked = 1;
pos = (-330,2917);
scale = (0.8,0.8);
};
hints = (
{
name = _corner.rightSerif;
options = 1;
origin = (0,0);
type = Corner;
},
{
name = _corner.rightSerif;
options = 1;
origin = (0,2);
type = Corner;
},
{
name = _corner.leftSerif;
origin = (0,3);
type = Corner;
}
);
layerId = m01;
shapes = (
{
closed = 1;
nodes = (
(142,0,l),
(397,700,l),
(307,700,l),
(52,0,l)
);
},
{
closed = 1;
nodes = (
(286,435,l),
(391,435,ls),
(531,435,o),
(581,330,o),
(581,265,cs),
(581,95,o),
(421,25,o),
(271,25,cs),
(236,25,l),
(235,0,l),
(256,0,ls),
(443,0,o),
(676,62,o),
(676,300,cs),
(676,398,o),
(563,460,o),
(406,460,cs),
(286,460,l)
);
},
{
closed = 1;
nodes = (
(337,675,l),
(442,675,ls),
(552,675,o),
(602,650,o),
(602,585,cs),
(602,525,o),
(522,460,o),
(372,460,cs),
(337,460,l),
(336,435,l),
(357,435,ls),
(544,435,o),
(687,462,o),
(687,590,cs),
(687,688,o),
(584,700,o),
(457,700,cs),
(337,700,l)
);
}
);
width = 740;
}
);
},
{
glyphname = C.001;
layers = (
{
backgroundImage = {
angle = -90;
imagePath = "/Users/nathanlew/Documents/Desktop/Images/Q_-Regular.tif";
pos = (-1372,1549);
scale = (0.88,0.88);
};
layerId = m01;
shapes = (
{
closed = 1;
nodes = (
(539,-20,o),
(664,84,o),
(789,332,c),
(776,345,l),
(626,88,o),
(522,32,o),
(403,32,cs),
(233,32,o),
(133,167,o),
(133,317,cs),
(133,498,o),
(321,663,o),
(451,663,cs),
(589,663,o),
(672,601,o),
(619,450,c),
(641,448,l),
(726,615,l),
(720,657,o),
(643,720,o),
(519,720,cs),
(280,720,o),
(59,463,o),
(59,220,cs),
(59,70,o),
(184,-20,o),
(359,-20,c)
);
}
);
width = 800;
}
);
},
{
glyphname = D.001;
lastChange = "2025-12-05 03:06:07 +0000";
layers = (
{
layerId = m01;
shapes = (
{
closed = 1;
nodes = (
(129,0,l),
(478,0,o),
(664,332,o),
(664,545,cs),
(664,685,o),
(514,699,o),
(409,699,c),
(360,700,l),
(360,680,l),
(391,680,l),
(501,680,o),
(583,650,o),
(583,520,cs),
(583,327,o),
(410,20,o),
(142,20,c),
(119,20,l),
(119,0,l)
);
},
{
alignment = -1;
pos = (30,0);
ref = _part.stem;
}
);
width = 640;
}
);
},
{
glyphname = D.002;
layers = (
{
layerId = m01;
shapes = (
{
closed = 1;
nodes = (
(99,0,l),
(448,0,o),
(724,302,o),
(724,515,cs),
(724,655,o),
(604,699,o),
(399,699,c),
(330,700,l),
(330,680,l),
(361,680,l),
(561,680,o),
(620,620,o),
(620,490,cs),
(620,267,o),
(380,20,o),
(112,20,c),
(89,20,l),
(89,0,l)
);
},
{
alignment = -1;
ref = _part.stem;
}
);
width = 680;
}
);
},
{
glyphname = D.003;
layers = (
{
layerId = m01;
shapes = (
{
alignment = -1;
pos = (60,0);
ref = _part.stem;
},
{
closed = 1;
nodes = (
(456,675,l),
(491,675,ls),
(691,675,o),
(681,510,o),
(681,445,cs),
(681,275,o),
(481,25,o),
(271,25,cs),
(236,25,l),
(235,0,l),
(256,0,ls),
(503,0,o),
(776,242,o),
(776,480,cs),
(776,578,o),
(723,700,o),
(506,700,cs),
(456,700,l)
);
}
);
width = 760;
}
);
},
{
glyphname = D.004;
kernLeft = D;
kernRight = D;
lastChange = "2025-12-30 07:40:48 +0000";
layers = (
{
hints = (
{
name = _corner.rightSerif;
options = 1;
origin = (0,2);
type = Corner;
},
{
name = _corner.leftSerif;
origin = (0,3);
type = Corner;
}
);
layerId = m01;
shapes = (
{
closed = 1;
nodes = (
(80,0,l),
(335,700,l),
(265,700,l),
(10,0,l)
);
},
{
closed = 1;
nodes = (
(305,677,l),
(391,678,ls),
(558,680,o),
(611,590,o),
(611,495,cs),
(611,385,o),
(467,23,o),
(116,23,cs),
(68,23,l),
(68,0,l),
(126,0,l),
(473,0,o),
(687,327,o),
(687,505,cs),
(687,633,o),
(563,700,o),
(416,700,c),
(310,700,l)
);
}
);
width = 650;
}
);
},
{
glyphname = D.100;
lastChange = "2025-12-22 01:05:20 +0000";
layers = (
{
layerId = m01;
shapes = (
{
alignment = -1;
pos = (60,0);
ref = _part.stem;
},
{
closed = 1;
nodes = (
(456,675,l),
(491,675,ls),
(691,675,o),
(681,520,o),
(681,455,cs),
(681,345,o),
(481,25,o),
(271,25,cs),
(236,25,l),
(235,0,l),
(256,0,ls),
(540,0,o),
(776,312,o),
(776,490,cs),
(776,588,o),
(723,700,o),
(506,700,cs),
(456,700,l)
);
}
);
width = 760;
}
);
},
{
glyphname = E.001;
layers = (
{
layerId = m01;
shapes = (
{
alignment = -1;
ref = _part.stem;
},
{
closed = 1;
nodes = (
(336,0,l),
(468,115,l),
(454,124,l),
(407,91,l),
(355,52,o),
(275,20,o),
(202,20,c),
(89,20,l),
(89,0,l)
);
},
{
closed = 1;
nodes = (
(417,680,l),
(490,680,o),
(500,670,o),
(531,605,c),
(552,605,l),
(525,700,l),
(344,700,l),
(344,680,l)
);
},
{
closed = 1;
nodes = (
(216,432,o),
(314,471,o),
(381,453,c),
(400,497,l),
(345,507,o),
(243,471,o),
(209,429,c),
(189,363,l)
);
}
);
width = 540;
}
);
},
{
glyphname = E.002;
lastChange = "2025-12-20 13:43:01 +0000";
layers = (
{
layerId = m01;
shapes = (
{
closed = 1;
nodes = (
(466,0,l),
(528,115,l),
(514,124,l),
(455,52,o),
(408,20,o),
(335,20,c),
(109,20,l),
(109,0,l)
);
},
{
closed = 1;
nodes = (
(507,680,l),
(540,680,o),
(600,670,o),
(631,605,c),
(642,605,l),
(615,700,l),
(364,700,l),
(364,680,l)
);
},
{
closed = 1;
nodes = (
(248,438,l),
(389,438,l),
(422,438,o),
(454,433,o),
(440,387,c),
(452,387,l),
(507,498,l),
(489,498,l),
(473,473,o),
(432,460,o),
(403,460,c),
(248,460,l)
);
},
{
alignment = -1;
pos = (13,0);
ref = _part.stem;
}
);
width = 640;
}
);
},
{
glyphname = F.001;
layers = (
{
layerId = m01;
shapes = (
{
alignment = -1;
ref = _part.stem;
},
{
closed = 1;
nodes = (
(417,680,l),
(490,680,o),
(500,670,o),
(531,605,c),
(552,605,l),
(525,700,l),
(344,700,l),
(344,680,l)
);
},
{
closed = 1;
nodes = (
(226,422,o),
(324,461,o),
(391,443,c),
(410,487,l),
(355,497,o),
(253,461,o),
(219,419,c),
(199,353,l)
);
}
);
width = 440;
}
);
},
{
glyphname = G.001;
lastChange = "2025-12-05 04:35:46 +0000";
layers = (
{
backgroundImage = {
angle = 90;
imagePath = "/Users/nathanlew/Documents/Desktop/Images/G_-Regular.tif";
locked = 1;
pos = (1062,-1280);
scale = (0.88,0.88);
};
layerId = m01;
shapes = (
{
closed = 1;
nodes = (
(473,67,l),
(277,50,o),
(140,253,o),
(140,376,cs),
(140,546,o),
(282,710,o),
(422,710,cs),
(502,710,o),
(555,631,o),
(507,540,c),
(514,526,l),
(601,657,l),
(574,666,l),
(540,699,o),
(483,725,o),
(432,725,cs),
(268,725,o),
(104,559,o),
(104,293,cs),
(104,207,o),
(177,-17,o),
(437,-17,c)
);
},
{
closed = 1;
nodes = (
(679,284,o),
(561,141,o),
(498,36,c),
(505,26,l),
(609,131,o),
(719,391,o),
(692,443,c),
(311,314,l),
(317,294,l),
(668,401,l)
);
}
);
width = 680;
}
);
},
{
glyphname = G.002;
lastChange = "2025-12-05 03:06:07 +0000";
layers = (
{
backgroundImage = {
angle = 90;
imagePath = "/Users/nathanlew/Documents/Desktop/Images/G_-Regular.tif";
locked = 1;
pos = (2019,-2050);
scale = (0.88,0.88);
};
layerId = m01;
shapes = (
{
closed = 1;
nodes = (
(540,38,l),
(492,30,l),
(256,13,o),
(150,213,o),
(150,336,cs),
(150,506,o),
(242,710,o),
(382,710,cs),
(462,710,o),
(515,631,o),
(467,540,c),
(474,526,l),
(561,657,l),
(534,656,l),
(500,689,o),
(443,725,o),
(392,725,cs),
(228,725,o),
(124,609,o),
(124,443,cs),
(124,137,o),
(301,-14,o),
(526,-4,c)
);
},
{
closed = 1;
nodes = (
(537,30,l),
(710,467,l),
(406,467,l),
(405,452,l),
(642,452,l),
(469,30,l)
);
}
);
width = 680;
}
);
},
{
glyphname = G.003;
layers = (
{
backgroundImage = {
angle = 90;
imagePath = "/Users/nathanlew/Documents/Desktop/Images/G_-Regular.tif";
locked = 1;
pos = (2019,-2050);
scale = (0.88,0.88);
};
layerId = m01;
shapes = (
{
closed = 1;
nodes = (
(556,42,l),
(482,30,l),
(326,30,o),
(203,153,o),
(203,286,cs),
(203,456,o),
(294,690,o),
(486,690,cs),
(654,690,o),
(708,621,o),
(660,530,c),
(667,516,l),
(754,647,l),
(727,646,l),
(688,690,o),
(643,720,o),
(516,720,cs),
(312,720,o),
(114,582,o),
(114,370,cs),
(114,144,o),
(322,-14,o),
(537,-4,c)
);
},
{
closed = 1;
nodes = (
(547,20,l),
(701,434,l),
(377,434,l),
(375,415,l),
(612,415,l),
(459,30,l)
);
}
);
width = 680;
}
);
},
{
glyphname = G.004;
lastChange = "2025-12-20 00:14:55 +0000";
layers = (
{
hints = (
{
name = _corner.leftSerif;
origin = (1,15);
type = Corner;
}
);
layerId = m01;
shapes = (
{
closed = 1;
nodes = (
(614,241,l),
(542,119,o),
(446,63,o),
(305,63,cs),
(198,63,o),
(153,174,o),
(153,267,cs),
(153,450,o),
(280,678,o),
(499,678,cs),
(634,678,o),
(650,588,o),
(628,504,c),
(639,504,l),
(707,664,l),
(677,700,o),
(601,710,o),
(522,710,cs),
(291,710,o),
(74,492,o),
(74,236,c),
(74,94,o),
(144,-10,o),
(291,-10,cs),
(471,-10,o),
(559,113,o),
(619,229,c)
);
},
{
closed = 1;
nodes = (
(642,351,l),
(452,351,l),
(452,331,l),
(544,331,l),
(604,331,o),
(623,323,o),
(611,285,c),
(547,101,l),
(527,31,o),
(564,-5,o),
(601,-36,c),
(667,14,l),
(644,36,o),
(624,57,o),
(628,99,c),
(709,351,l)
);
}
);
width = 760;
}
);
},
{
glyphname = G.005;
layers = (
{
backgroundImage = {
angle = 90;
imagePath = "/Users/nathanlew/Documents/GitHub/font-nouveau/font-nouveau/Images/G_.005-Regular.tif";
locked = 1;
pos = (979,-922);
scale = (1.4,1.4);
};
layerId = m01;
shapes = (
{
closed = 1;
nodes = (
(614,241,l),
(542,119,o),
(416,63,o),
(325,63,cs),
(218,63,o),
(173,224,o),
(173,317,cs),
(173,500,o),
(294,690,o),
(486,690,cs),
(654,690,o),
(667,621,o),
(667,516,c),
(679,514,l),
(713,644,l),
(675,683,o),
(633,710,o),
(516,710,cs),
(312,710,o),
(94,542,o),
(94,286,cs),
(94,144,o),
(154,-10,o),
(301,-10,cs),
(482,-10,o),
(559,113,o),
(619,229,c)
);
},
{
closed = 1;
nodes = (
(693,30,l),
(466,151,o),
(798,255,o),
(562,389,c),
(482,329,l),
(737,223,o),
(420,125,o),
(601,-5,c)
);
}
);
width = 760;
}
);
},
{
glyphname = G.006;
layers = (
{
backgroundImage = {
angle = 90;
imagePath = "/Users/nathanlew/Documents/GitHub/font-nouveau/font-nouveau/Images/G_.006-Regular.tif";
locked = 1;
pos = (1530,-2006);
scale = (1.4,1.4);
};
hints = (
{
name = _corner.leftSerif;
origin = (1,14);
type = Corner;
}
);
layerId = m01;
shapes = (
{
closed = 1;
nodes = (
(614,241,l),
(542,119,o),
(426,63,o),
(335,63,cs),
(228,63,o),
(173,224,o),
(173,317,cs),
(173,500,o),
(327,690,o),
(466,690,cs),
(540,690,o),
(615,628,o),
(567,556,c),
(579,554,l),
(657,644,l),
(639,682,o),
(601,710,o),
(522,710,cs),
(331,710,o),
(94,542,o),
(94,286,cs),
(94,144,o),
(164,-10,o),
(311,-10,cs),
(492,-10,o),
(559,113,o),
(619,229,c)
);
},
{
closed = 1;
nodes = (
(647,401,l),
(457,401,l),
(457,381,l),
(485,381,o),
(628,373,o),
(616,335,c),
(542,101,l),
(522,31,o),
(559,-5,o),
(596,-36,c),
(662,14,l),
(639,36,o),
(619,57,o),
(623,99,c),
(714,401,l)
);
}
);
width = 760;
}
);
},
{
glyphname = G.007;
layers = (
{
backgroundImage = {
angle = 90;
imagePath = "/Users/nathanlew/Documents/Desktop/Images/G_-Regular.tif";
locked = 1;
pos = (2019,-2050);
scale = (0.88,0.88);
};
layerId = m01;
shapes = (
{
closed = 1;
nodes = (
(586,680,o),
(731,617,o),
(671,500,c),
(687,493,l),
(763,638,l),
(734,684,o),
(591,710,o),
(516,710,cs),
(289,710,o),
(96,508,o),
(96,270,cs),
(96,112,o),
(209,-10,o),
(386,-10,cs),
(539,-10,o),
(661,27,o),
(713,99,c),
(713,107,l),
(668,107,l),
(716,240,l),
(730,277,o),
(749,285,o),
(787,285,c),
(787,310,l),
(727,310,l),
(644,310,l),
(484,310,l),
(484,285,l),
(512,285,o),
(639,273,o),
(625,236,c),
(579,110,ls),
(567,76,o),
(520,53,o),
(427,53,cs),
(227,53,o),
(171,210,o),
(171,315,cs),
(171,485,o),
(291,680,o),
(481,680,cs)
);
}
);
width = 860;
}
);
},
{
glyphname = G.008;
layers = (
{
backgroundImage = {
angle = 90;
imagePath = "/Users/nathanlew/Documents/GitHub/font-nouveau/font-nouveau/Images/G_.008-Regular.tif";
locked = 1;
pos = (1568,-2009);
scale = (1.4,1.4);
};
hints = (
{
name = _corner.leftSerif;
origin = (1,1);
type = Corner;
},
{
name = _corner.rightSerif;
options = 1;
origin = (1,2);
type = Corner;
}
);
layerId = m01;
shapes = (
{
closed = 1;
nodes = (
(650,92,l),
(579,58,l),
(537,34,o),
(488,20,o),
(431,20,cs),
(231,20,o),
(186,195,o),
(186,320,cs),
(186,490,o),
(291,680,o),
(501,680,cs),
(585,680,o),
(632,657,o),
(670,612,c),
(697,664,l),
(648,695,o),
(594,710,o),
(516,710,cs),
(269,710,o),
(96,528,o),
(96,290,cs),
(96,132,o),
(199,-10,o),
(416,-10,cs),
(518,-10,o),
(608,20,o),
(678,73,c)
);
},
{
closed = 1;
nodes = (
(634,46,l),
(756,390,l),
(666,390,l),
(538,29,l)
);
}
);
width = 860;
}
);
},
{
glyphname = G.009;
lastChange = "2025-12-22 17:12:33 +0000";
layers = (
{
backgroundImage = {
angle = 90;
imagePath = "/Users/nathanlew/Documents/GitHub/font-nouveau/font-nouveau/Images/G_.009-Regular.tif";
locked = 1;
pos = (1568,-2009);
scale = (1.4,1.4);
};
hints = (
{
name = _corner.leftSerif;
origin = (1,1);
type = Corner;
},
{
name = _corner.rightSerif;
options = 1;
origin = (1,2);
type = Corner;
}
);
layerId = m01;
shapes = (
{
closed = 1;
nodes = (
(650,92,l),
(579,88,l),
(537,64,o),
(488,50,o),
(431,50,cs),
(231,50,o),
(136,195,o),
(136,320,cs),
(136,490,o),
(261,630,o),
(431,630,cs),
(515,630,o),
(562,617,o),
(603,596,c),
(697,664,l),
(648,695,o),
(594,710,o),
(516,710,cs),
(269,710,o),
(96,528,o),
(96,290,cs),
(96,132,o),
(199,-10,o),
(416,-10,cs),
(518,-10,o),
(608,20,o),
(678,73,c)
);
},
{
closed = 1;
nodes = (
(634,46,l),
(756,390,l),
(666,390,l),
(538,29,l)
);
}
);
width = 860;
}
);
},
{
glyphname = G.010;
layers = (
{
backgroundImage = {
angle = 90;
imagePath = "/Users/nathanlew/Documents/GitHub/font-nouveau/font-nouveau/Images/G_-Regular.tif";
locked = 1;
pos = (1568,-2009);
scale = (1.4,1.4);
};
hints = (
{
name = _corner.leftSerif;
origin = (1,1);
type = Corner;
},
{
name = _corner.rightSerif;
options = 1;
origin = (1,2);
type = Corner;
}
);
layerId = m01;
shapes = (
{
closed = 1;
nodes = (
(650,92,l),
(579,58,l),
(537,34,o),
(488,20,o),
(431,20,cs),
(201,20,o),
(171,195,o),
(171,290,cs),
(171,449,o),
(301,680,o),
(511,680,cs),
(595,680,o),
(632,657,o),
(670,612,c),
(697,664,l),
(648,695,o),
(604,710,o),
(526,710,cs),
(279,710,o),
(91,488,o),
(91,270,cs),
(91,142,o),
(169,-10,o),
(416,-10,cs),
(518,-10,o),
(608,20,o),
(678,73,c)
);
},
{
closed = 1;
nodes = (
(634,46,l),
(713,268,l),
(623,268,l),
(538,29,l)
);
}
);
width = 840;
}
);
},
{
glyphname = G.011;
kernLeft = G;
kernRight = G;
lastChange = "2025-12-30 03:53:06 +0000";
layers = (
{
backgroundImage = {
angle = 90;
imagePath = "/Users/nathanlew/Documents/GitHub/font-nouveau/font-nouveau/Images/G_-Regular.tif";
locked = 1;
pos = (1547,-2009);
scale = (1.4,1.4);
};
hints = (
{
name = _corner.leftSerif;
origin = (0,1);
scale = (0.75,1);
type = Corner;
},
{
name = _corner.rightSerif;
options = 1;
origin = (0,2);
scale = (2,1);
type = Corner;
}
);
layerId = m01;
shapes = (
{
closed = 1;
nodes = (
(556,98,l),
(625,291,l),
(559,291,l),
(493,105,ls),
(473,48,o),
(433,38,o),
(325,38,cs),
(158,38,o),
(113,170,o),
(113,295,cs),
(113,425,o),
(203,681,o),
(431,681,cs),
(519,681,o),
(597,636,o),
(573,524,c),
(585,524,l),
(625,644,l),
(583,686,o),
(525,710,o),
(456,710,cs),
(199,710,o),
(44,453,o),
(44,255,cs),
(44,97,o),
(149,-10,o),
(326,-10,cs),
(445,-10,o),
(519,29,o),
(574,84,c)
);
}
);
width = 700;
}
);
},
{
glyphname = H.001;
layers = (
{
backgroundImage = {
angle = -90;
imagePath = /Users/nathanlew/Documents/Downloads/IMG_9975.HEIC;
locked = 1;
pos = (-273,2959);
scale = (0.8,0.8);
};
layerId = m01;
shapes = (
{
alignment = -1;
pos = (13,0);
ref = _part.stem;
},
{
alignment = -1;
pos = (428,0);
ref = _part.stem;
},
{
closed = 1;
nodes = (
(237,526,o),
(487,569,o),
(618,496,c),
(636,532,l),
(505,585,o),
(325,554,o),
(227,483,c),
(184,379,l)
);
}
);
width = 700;
}
);
},
{
glyphname = J.001;
lastChange = "2025-12-05 03:06:07 +0000";
layers = (
{
hints = (
{
name = _corner.leftSerif;
origin = (0,9);
type = Corner;
},
{
name = _corner.rightSerif;
options = 1;
origin = (0,10);
type = Corner;
}
);
layerId = m01;
shapes = (
{
closed = 1;
nodes = (
(-13,194,o),
(-50,141,o),
(-50,74,cs),
(-50,36,o),
(-37,-39,o),
(80,-39,cs),
(225,-39,o),
(292,30,o),
(360,191,c),
(533,700,l),
(443,700,l),
(248,165,l),
(215,75,o),
(167,-22,o),
(80,-22,cs),
(35,-22,o),
(0,0,o),
(0,38,cs),
(0,83,o),
(24,146,o),
(74,167,c),
(92,155,l),
(105,167,l),
(27,223,l)
);
}
);
width = 480;
}
);
},
{
glyphname = J.002;
layers = (
{
hints = (
{
name = _corner.leftSerif;
origin = (0,9);
type = Corner;
},
{
name = _corner.rightSerif;
options = 1;
origin = (0,10);
type = Corner;
}
);
layerId = m01;
shapes = (
{
closed = 1;
nodes = (
(-13,194,o),
(-50,141,o),
(-50,74,cs),
(-50,36,o),
(-37,-39,o),
(80,-39,cs),
(225,-39,o),
(292,30,o),
(360,191,c),
(533,700,l),
(443,700,l),
(248,165,l),
(215,75,o),
(167,-12,o),
(80,-12,cs),
(35,-12,o),
(10,10,o),
(10,48,cs),
(10,97,o),
(50,155,o),
(106,172,c),
(27,223,l)
);
}
);
width = 480;
}
);
},
{
glyphname = J.100;
kernLeft = J;
kernRight = J;
lastChange = "2025-12-30 05:58:52 +0000";
layers = (
{
hints = (
{
name = _corner.leftSerif;
origin = (0,13);
scale = (1.25,1);
type = Corner;
},
{
name = _corner.rightSerif;
options = 1;
origin = (0,14);
scale = (1.25,1);
type = Corner;
}
);
layerId = m01;
shapes = (
{
closed = 1;
nodes = (
(185,-53,o),
(143,-94,o),
(75,-94,cs),
(26,-94,o),
(-1,-28,o),
(-7,8,c),
(-90,-26,l),
(-74,-65,o),
(-37,-112,o),
(67,-112,cs),
(141,-112,o),
(244,-87,o),
(298,62,cs),
(529,700,l),
(459,700,l),
(224,55,ls)
);
}
);
width = 480;
}
);
},
{
glyphname = K.001;
lastChange = "2025-12-05 03:06:07 +0000";
layers = (
{
layerId = m01;
shapes = (
{
alignment = -1;
ref = _part.stem;
},
{
closed = 1;
nodes = (
(589,0,l),
(574,210,o),
(299,288,o),
(299,456,cs),
(299,587,o),
(547,583,o),
(670,702,c),
(576,703,l),
(466,588,o),
(266,602,o),
(266,438,cs),
(266,288,o),
(478,183,o),
(478,0,c)
);
}
);
width = 680;
}
);
},
{
glyphname = K.002;
layers = (
{
hints = (
{
name = _corner.rightSerif;
options = 1;
origin = (1,4);
type = Corner;
},
{
name = _corner.leftSerif;
origin = (1,3);
type = Corner;
},
{
name = _corner.leftSerif;
origin = (2,3);
type = Corner;
},
{
name = _corner.rightSerif;
options = 1;
origin = (2,4);
type = Corner;
}
);
layerId = m01;
shapes = (
{
alignment = -1;
ref = _part.stem;
},
{
closed = 1;
nodes = (
(339,416,l),
(397,550,o),
(676,527,o),
(690,702,c),
(596,700,l),
(574,535,o),
(393,570,o),
(315,443,c)
);
},
{
closed = 1;
nodes = (
(200,471,l),
(397,387,o),
(528,128,o),
(528,0,c),
(639,0,l),
(627,157,o),
(383,419,o),
(232,502,c)
);
}
);
width = 840;
}
);
},
{
glyphname = K.003;
layers = (
{
hints = (
{
name = _corner.leftSerif;
origin = (1,3);
type = Corner;
},
{
name = _corner.rightSerif;
options = 1;
origin = (1,4);
type = Corner;
}
);
layerId = m01;
shapes = (
{
alignment = -1;
ref = _part.stem;
},
{
closed = 1;
nodes = (
(340,291,l),
(537,207,o),
(510,137,o),
(458,0,c),
(569,0,l),
(620,157,o),
(523,239,o),
(372,322,c)
);
},
{
closed = 1;
nodes = (
(587,666,l),
(755,391,o),
(283,300,o),
(136,232,c),
(136,199,l),
(331,274,o),
(836,411,o),
(673,735,c)
);
}
);
width = 840;
}
);
},
{
glyphname = K.004;
lastChange = "2025-12-05 03:06:07 +0000";
layers = (
{
hints = (
{
name = _corner.rightSerif;
options = 1;
origin = (1,4);
type = Corner;
},
{
name = _corner.leftSerif;
origin = (1,3);
type = Corner;
},
{
name = _corner.leftSerif;
origin = (2,3);
type = Corner;
},
{
name = _corner.rightSerif;
options = 1;
origin = (2,4);
type = Corner;
}
);
layerId = m01;
shapes = (
{
alignment = -1;
ref = _part.stem;
},
{
closed = 1;
nodes = (
(409,436,l),
(490,527,o),
(676,380,o),
(690,702,c),
(596,700,l),
(574,388,o),
(513,600,o),
(365,463,c)
);
},
{
closed = 1;
nodes = (
(198,228,l),
(395,244,o),
(528,128,o),
(528,0,c),
(639,0,l),
(627,157,o),
(493,397,o),
(342,380,c)
);
}
);
width = 760;
}
);
},
{
glyphname = K.005;
lastChange = "2025-12-20 00:37:30 +0000";
layers = (
{
layerId = m01;
shapes = (
{
alignment = -1;
ref = _part.stem;
},
{
closed = 1;
nodes = (
(318,301,l),
(671,158,o),
(533,57,o),
(422,-4,c),
(438,-23,l),
(586,58,o),
(761,188,o),
(401,338,c)
);
},
{
closed = 1;
nodes = (
(507,666,l),
(679,411,o),
(283,320,o),
(136,252,c),
(136,219,l),
(331,294,o),
(756,411,o),
(593,735,c)
);
}
);
width = 720;
}
);
},
{
glyphname = K.006;
lastChange = "2025-12-20 13:13:21 +0000";
layers = (
{
hints = (
{
name = _corner.rightSerif;
options = 1;
origin = (0,0);
type = Corner;
},
{
name = _corner.leftSerif;
origin = (0,1);
type = Corner;
},
{
name = _corner.rightSerif;
options = 1;
origin = (0,2);
type = Corner;
},
{
name = _corner.leftSerif;
origin = (0,3);
type = Corner;
}
);
layerId = m01;
shapes = (
{
closed = 1;
nodes = (
(79,0,l),
(334,700,l),
(244,700,l),
(-11,0,l)
);
},
{
closed = 1;
nodes = (
(303,450,l),
(408,391,o),
(451,44,o),
(594,-47,c),
(665,53,l),
(543,108,o),
(511,474,o),
(381,516,c)
);
},
{
closed = 1;
nodes = (
(773,685,l),
(659,838,o),
(333,480,o),
(186,412,c),
(186,379,l),
(381,454,o),
(627,775,o),
(687,616,c)
);
}
);
width = 720;
}
);
},
{
glyphname = K.007;
layers = (
{
layerId = m01;
shapes = (
{
alignment = -1;
ref = _part.stem;
},
{
closed = 1;
nodes = (
(340,291,l),
(552,207,o),
(513,149,o),
(461,12,c),
(559,-40,l),
(648,117,o),
(606,222,o),
(369,299,c)
);
},
{
closed = 1;
nodes = (
(587,666,l),
(755,391,o),
(283,300,o),
(136,232,c),
(136,199,l),
(331,274,o),
(836,411,o),
(673,735,c)
);
}
);
width = 840;
}
);
},
{
glyphname = K.008;
lastChange = "2025-12-20 13:16:33 +0000";
layers = (
{
hints = (
{
name = _corner.rightSerif;
options = 1;
origin = (2,0);
type = Corner;
},
{
name = _corner.leftSerif;
origin = (2,1);
type = Corner;
},
{
name = _corner.rightSerif;
options = 1;
origin = (2,2);
type = Corner;
},
{
name = _corner.leftSerif;
origin = (2,3);
type = Corner;
}
);
layerId = m01;
shapes = (
{
alignment = -1;
ref = _part.stem;
},
{
closed = 1;
nodes = (
(587,666,l),
(755,391,o),
(283,300,o),
(136,232,c),
(136,199,l),
(331,274,o),
(836,411,o),
(673,735,c)
);
},
{
closed = 1;
nodes = (
(79,0,l),
(334,700,l),
(244,700,l),
(-11,0,l)
);
},
{
closed = 1;
nodes = (
(567,-24,l),
(653,45,l),
(306,295,l),
(220,226,l)
);
}
);
width = 840;
}
);
},
{
glyphname = K.009;
layers = (
{
hints = (
{
name = _corner.rightSerif;
options = 1;
origin = (1,0);
type = Corner;
},
{
name = _corner.leftSerif;
origin = (1,1);
type = Corner;
},
{
name = _corner.rightSerif;
options = 1;
origin = (1,2);
type = Corner;
},
{
name = _corner.leftSerif;
origin = (1,3);
type = Corner;
}
);
layerId = m01;
shapes = (
{
closed = 1;
nodes = (
(577,666,l),
(743,412,o),
(417,429,o),
(256,352,c),
(256,319,l),
(413,371,o),
(826,411,o),
(663,735,c)
);
},
{
closed = 1;
nodes = (
(149,0,l),
(404,700,l),
(314,700,l),
(59,0,l)
);
},
{
closed = 1;
nodes = (
(637,260,o),
(380,152,o),
(637,-34,c),
(723,35,l),
(490,129,o),
(731,317,o),
(507,417,c),
(409,366,l)
);
}
);
width = 920;
}
);
},
{
glyphname = K.010;
layers = (
{
hints = (
{
name = _corner.rightSerif;
options = 1;
origin = (1,0);
type = Corner;
},
{
name = _corner.leftSerif;
origin = (1,1);
type = Corner;
},
{
name = _corner.rightSerif;
options = 1;
origin = (1,2);
type = Corner;
},
{
name = _corner.leftSerif;
origin = (1,3);
type = Corner;
}
);
layerId = m01;
shapes = (
{
closed = 1;
nodes = (
(657,666,l),
(823,412,o),
(357,269,o),
(196,192,c),
(196,169,l),
(353,231,o),
(906,411,o),
(743,735,c)
);
},
{
closed = 1;
nodes = (
(149,0,l),
(404,700,l),
(314,700,l),
(59,0,l)
);
},
{
closed = 1;
nodes = (
(382,265,l),
(411,146,o),
(505,49,o),
(582,0,c),
(716,0,l),
(724,10,l),
(582,97,o),
(517,179,o),
(474,300,c)
);
}
);
width = 880;
}
);
},
{
glyphname = K.011;
layers = (
{
hints = (
{
name = _corner.rightSerif;
options = 1;
origin = (1,0);
type = Corner;
},
{
name = _corner.leftSerif;
origin = (1,1);
type = Corner;
},
{
name = _corner.rightSerif;
options = 1;
origin = (1,2);
type = Corner;
},
{
name = _corner.leftSerif;
origin = (1,3);
type = Corner;
}
);
layerId = m01;
shapes = (
{
closed = 1;
nodes = (
(657,666,l),
(823,412,o),
(357,269,o),
(196,192,c),
(196,169,l),
(353,231,o),
(906,411,o),
(743,735,c)
);
},
{
closed = 1;
nodes = (
(149,0,l),
(404,700,l),
(314,700,l),
(59,0,l)
);
},
{
closed = 1;
nodes = (
(382,265,l),
(450,116,o),
(568,27,o),
(692,0,c),
(726,0,l),
(734,10,l),
(601,48,o),
(534,160,o),
(474,300,c)
);
}
);
width = 880;
}
);
},
{
glyphname = K.012;
kernLeft = K;
kernRight = K;
layers = (
{
layerId = m01;
shapes = (
{
closed = 1;
nodes = (
(292,275,l),
(351,90,o),
(409,7,o),
(626,-10,c),
(634,0,l),
(497,16,o),
(444,111,o),
(374,300,c)
);
},
{
alignment = -1;
pos = (-19,0);
ref = _part.stem;
},
{
closed = 1;
nodes = (
(90,190,l),
(198,235,o),
(305,280,o),
(413,325,cs),
(674,434,o),
(674,594,o),
(640,707,c),
(544,683,l),
(595,603,o),
(560,442,o),
(459,385,cs),
(367,333,o),
(253,291,o),
(155,254,c),
(108,265,l)
);
}
);
width = 680;
}
);
},
{
glyphname = K.014;
kernLeft = K;
kernRight = K;
lastChange = "2025-12-30 08:40:34 +0000";
layers = (
{
hints = (
{
name = _corner.rightSerif;
options = 1;
origin = (0,0);
scale = (0.8,1);
type = Corner;
},
{
name = _corner.leftSerif;
origin = (0,14);
scale = (0.8,1);
type = Corner;
},
{
name = _corner.rightSerif;
options = 1;
origin = (0,15);
scale = (0.8,1);
type = Corner;
},
{
name = _corner.leftSerif;
origin = (0,16);
scale = (0.8,1);
type = Corner;
}
);
layerId = m01;
shapes = (
{
closed = 1;
nodes = (
(70,0,l),
(148,214,l),
(363,327,ls),
(612,458,o),
(694,594,o),
(647,707,c),
(551,683,l),
(566,666,o),
(575,638,o),
(575,593,cs),
(575,464,o),
(318,319,o),
(166,250,c),
(160,250,l),
(325,700,l),
(255,700,l),
(0,0,l)
);
},
{
closed = 1;
nodes = (
(301,310,l),
(367,116,o),
(502,28,o),
(624,-6,c),
(625,13,l),
(519,51,o),
(418,153,o),
(370,345,c)
);
}
);
width = 740;
}
);
},
{
glyphname = L.001;
layers = (
{
layerId = m01;
shapes = (
{
alignment = -1;
ref = _part.stem;
},
{
closed = 1;
nodes = (
(301,0,l),
(433,115,l),
(419,124,l),
(372,91,l),
(320,52,o),
(240,20,o),
(167,20,c),
(89,20,l),
(89,0,l)
);
}
);
width = 500;
}
);
},
{
glyphname = L.002;
lastChange = "2025-12-20 10:22:24 +0000";
layers = (
{
hints = (
{
name = _corner.leftSerif;
origin = (0,5);
type = Corner;
},
{
name = _corner.rightSerif;
options = 1;
origin = (0,6);
type = Corner;
},
{
name = _corner.leftSerif;
origin = (0,7);
type = Corner;
}
);
layerId = m01;
shapes = (
{
closed = 1;
nodes = (
(204,39,c),
(127,25,l),
(99,22,o),
(89,27,o),
(103,65,c),
(334,700,l),
(244,700,l),
(-12,-9,l),
(140,6,l),
(271,15,o),
(373,83,o),
(462,-17,c),
(530,67,l),
(382,130,o),
(356,76,o)
);
}
);
width = 680;
}
);
},
{
glyphname = M.001;
lastChange = "2025-12-05 03:06:07 +0000";
layers = (
{
backgroundImage = {
angle = 90;
imagePath = "/Users/nathanlew/Documents/Desktop/Images/M_-Regular.tif";
locked = 1;
pos = (2001,-1107);
scale = (0.8,0.8);
};
hints = (
{
name = _corner.rightSerif;
options = 1;
origin = (1,0);
type = Corner;
},
{
name = _corner.leftSerif;
origin = (1,1);
type = Corner;
},
{
name = _corner.leftSerif;
origin = (1,3);
type = Corner;
},
{
name = _corner.rightSerif;
options = 1;
origin = (0,0);
type = Corner;
},
{
name = _corner.rightSerif;
options = 1;
origin = (0,2);
type = Corner;
},
{
name = _corner.leftSerif;
origin = (0,3);
type = Corner;
}
);
layerId = m01;
shapes = (
{
closed = 1;
nodes = (
(39,0,l),
(294,700,l),
(234,700,l),
(-21,0,l)
);
},
{
closed = 1;
nodes = (
(618,0,l),
(873,700,l),
(783,700,l),
(528,0,l)
);
},
{
closed = 1;
nodes = (
(293,639,o),
(364,470,o),
(422,327,c),
(458,380,l),
(525,469,o),
(691,637,o),
(804,673,c),
(809,701,l),
(722,700,o),
(521,523,o),
(459,442,c),
(418,537,o),
(382,690,o),
(293,734,c),
(183,701,l)
);
}
);
width = 760;
}
);
},
{
glyphname = M.002;
lastChange = "2025-12-05 03:06:07 +0000";
layers = (
{
backgroundImage = {
angle = 90;
imagePath = "/Users/nathanlew/Documents/Desktop/Images/M_-Regular.tif";
pos = (1936,-379);
scale = (0.8,0.8);
};
hints = (
{
name = _corner.rightSerif;
options = 1;
origin = (1,0);
type = Corner;
},
{
name = _corner.leftSerif;
origin = (1,1);
type = Corner;
},
{
name = _corner.leftSerif;
origin = (1,3);
type = Corner;
},
{
name = _corner.rightSerif;
options = 1;
origin = (0,0);
type = Corner;
},
{
name = _corner.rightSerif;
options = 1;
origin = (0,2);
type = Corner;
},
{
name = _corner.leftSerif;
origin = (0,3);
type = Corner;
}
);
layerId = m01;
shapes = (
{
closed = 1;
nodes = (
(39,0,l),
(252,547,l),
(192,547,l),
(-21,0,l)
);
},
{
closed = 1;
nodes = (
(618,0,l),
(873,700,l),
(783,700,l),
(528,0,l)
);
},
{
closed = 1;
nodes = (
(199,498,l),
(179,437,l),
(325,-15,l),
(325,274,o),
(661,673,o),
(794,673,c),
(783,700,l),
(680,700,o),
(387,449,o),
(325,179,c),
(251,581,l),
(141,548,l)
);
}
);
width = 760;
}
);
},
{
glyphname = M.003;
layers = (
{
backgroundImage = {
angle = 90;
imagePath = "/Users/nathanlew/Documents/Desktop/Images/M_-Regular.tif";
locked = 1;
pos = (2001,-1107);
scale = (0.8,0.8);
};
hints = (
{
name = _corner.rightSerif;
options = 1;
origin = (1,0);
type = Corner;
},
{
name = _corner.leftSerif;
origin = (1,1);
type = Corner;
},
{
name = _corner.leftSerif;
origin = (1,4);
type = Corner;
},
{
name = _corner.rightSerif;
options = 1;
origin = (0,0);
type = Corner;
},
{
name = _corner.rightSerif;
options = 1;
origin = (0,2);
type = Corner;
},
{
name = _corner.leftSerif;
origin = (0,3);
type = Corner;
}
);
layerId = m01;
shapes = (
{
closed = 1;
nodes = (
(39,0,l),
(283,678,l),
(223,678,l),
(-21,0,l)
);
},
{
closed = 1;
nodes = (
(618,0,l),
(873,700,l),
(829,700,l),
(774,675,l),
(528,0,l)
);
},
{
closed = 1;
nodes = (
(282,617,o),
(364,460,o),
(422,317,c),
(505,459,o),
(691,616,o),
(794,652,c),
(829,700,l),
(732,699,o),
(551,543,o),
(489,472,c),
(448,567,o),
(371,668,o),
(282,712,c),
(172,679,l)
);
}
);
width = 760;
}
);
},
{
glyphname = M.004;
layers = (
{
backgroundImage = {
angle = 90;
imagePath = "/Users/nathanlew/Documents/Desktop/Images/M_-Regular.tif";
locked = 1;
pos = (2001,-1107);
scale = (0.8,0.8);
};
hints = (
{
name = _corner.rightSerif;
options = 1;
origin = (1,0);
type = Corner;
},
{
name = _corner.leftSerif;
origin = (1,1);
type = Corner;
},
{
name = _corner.leftSerif;
origin = (1,4);
type = Corner;
},
{
name = _corner.rightSerif;
options = 1;
origin = (0,0);
type = Corner;
},
{
name = _corner.rightSerif;
options = 1;
origin = (0,2);
type = Corner;
},
{
name = _corner.leftSerif;
origin = (0,3);
type = Corner;
}
);
layerId = m01;
shapes = (
{
closed = 1;
nodes = (
(39,0,l),
(283,678,l),
(223,678,l),
(-21,0,l)
);
},
{
closed = 1;
nodes = (
(618,0,l),
(873,700,l),
(829,700,l),
(774,675,l),
(528,0,l)
);
},
{
closed = 1;
nodes = (
(282,617,o),
(364,460,o),
(422,317,c),
(505,459,o),
(691,616,o),
(794,652,c),
(829,700,l),
(732,699,o),
(551,543,o),
(489,472,c),
(448,567,o),
(371,668,o),
(282,712,c),
(172,679,l)
);
}
);
width = 760;
}
);
},
{
glyphname = M.005;
kernLeft = M;
kernRight = M;
layers = (
{
backgroundImage = {
angle = 90;
imagePath = "/Users/nathanlew/Documents/Desktop/Images/M_-Regular.tif";
locked = 1;
pos = (1980,-1107);
scale = (0.8,0.8);
};
hints = (
{
name = _corner.rightSerif;
options = 1;
origin = (1,0);
scale = (0.8,1);
type = Corner;
},
{
name = _corner.rightSerif;
options = 1;
origin = (1,2);
scale = (0.8,1);
type = Corner;
},
{
name = _corner.leftSerif;
origin = (1,3);
scale = (0.8,1);
type = Corner;
},
{
name = _corner.rightSerif;
options = 1;
origin = (2,0);
scale = (0.8,1);
type = Corner;
},
{
name = _corner.leftSerif;
origin = (2,1);
scale = (0.8,1);
type = Corner;
},
{
name = _corner.leftSerif;
origin = (2,3);
scale = (0.8,1);
type = Corner;
}
);
layerId = m01;
shapes = (
{
closed = 1;
nodes = (
(309,557,o),
(326,463,o),
(386,262,c),
(735,669,l),
(735,700,l),
(417,387,l),
(377,498,o),
(376,639,o),
(261,712,c),
(178,678,l),
(221,678,l),
(260,620,l),
(271,621,l)
);
},
{
closed = 1;
nodes = (
(37,0,l),
(284,678,l),
(246,678,l),
(-1,0,l)
);
},
{
closed = 1;
nodes = (
(540,0,l),
(795,700,l),
(725,700,l),
(470,0,l)
);
}
);
width = 700;
}
);
},
{
glyphname = M.006;
kernLeft = M;
kernRight = M;
layers = (
{
backgroundImage = {
angle = 90;
imagePath = "/Users/nathanlew/Documents/Desktop/Images/M_-Regular.tif";
locked = 1;
pos = (1980,-1107);
scale = (0.8,0.8);
};
hints = (
{
name = _corner.rightSerif;
options = 1;
origin = (1,0);
scale = (0.8,1);
type = Corner;
},
{
name = _corner.rightSerif;
options = 1;
origin = (1,2);
scale = (0.8,1);
type = Corner;
},
{
name = _corner.leftSerif;
origin = (1,3);
scale = (0.8,1);
type = Corner;
},
{
name = _corner.rightSerif;
options = 1;
origin = (2,0);
scale = (0.8,1);
type = Corner;
},
{
name = _corner.leftSerif;
origin = (2,1);
scale = (0.8,1);
type = Corner;
},
{
name = _corner.leftSerif;
origin = (2,3);
scale = (0.8,1);
type = Corner;
}
);
layerId = m01;
shapes = (
{
closed = 1;
nodes = (
(304,543,o),
(348,463,o),
(386,262,c),
(397,262,l),
(725,669,l),
(715,700,l),
(434,350,l),
(425,350,l),
(410,461,o),
(375,625,o),
(261,712,c),
(178,678,l),
(221,678,l),
(255,606,l),
(266,607,l)
);
},
{
closed = 1;
nodes = (
(37,0,l),
(284,678,l),
(246,678,l),
(-1,0,l)
);
},
{
closed = 1;
nodes = (
(530,0,l),
(785,700,l),
(715,700,l),
(460,0,l)
);
}
);
width = 700;
}
);
},
{
glyphname = M.007;
kernLeft = M;
kernRight = M;
layers = (
{
backgroundImage = {
angle = 90;
imagePath = "/Users/nathanlew/Documents/Desktop/Images/M_-Regular.tif";
locked = 1;
pos = (1980,-1107);
scale = (0.8,0.8);
};
hints = (
{
name = _corner.rightSerif;
options = 1;
origin = (0,26);
scale = (0.8,1);
type = Corner;
},
{
name = _corner.leftSerif;
origin = (0,25);
scale = (0.8,1);
type = Corner;
},
{
name = _corner.rightSerif;
options = 1;
origin = (0,9);
scale = (0.8,1);
type = Corner;
},
{
name = _corner.leftSerif;
origin = (0,10);
scale = (0.8,1);
type = Corner;
},
{
name = _corner.leftSerif;
origin = (0,8);
scale = (0.8,1);
type = Corner;
}
);
layerId = m01;
shapes = (
{
closed = 1;
nodes = (
(296,543,o),
(338,463,o),
(376,262,c),
(387,262,l),
(468,382,o),
(567,508,o),
(676,621,c),
(684,621,l),
(459,0,l),
(529,0,l),
(784,700,l),
(736,700,l),
(701,700,o),
(503,474,o),
(420,350,c),
(411,350,l),
(396,461,o),
(374,624,o),
(263,712,c),
(170,678,l),
(171,678,l),
(171,663,l),
(217,660,o),
(225,643,o),
(205,587,cs),
(-9,0,l),
(29,0,l),
(250,606,l),
(258,607,l)
);
}
);
width = 700;
}
);
},
{
glyphname = N.001;
lastChange = "2025-12-05 03:06:07 +0000";
layers = (
{
hints = (
{
name = _corner.rightSerif;
options = 1;
origin = (1,0);
type = Corner;
},
{
name = _corner.rightSerif;
options = 1;
origin = (1,2);
type = Corner;
},
{
name = _corner.leftSerif;
origin = (1,3);
type = Corner;
},
{
name = _corner.leftSerif;
origin = (0,1);
type = Corner;
},
{
name = _corner.rightSerif;
options = 1;
origin = (0,2);
type = Corner;
}
);
layerId = m01;
shapes = (
{
closed = 1;
nodes = (
(527,0,l),
(782,700,l),
(742,700,l),
(487,0,l)
);
},
{
closed = 1;
nodes = (
(19,0,l),
(258,658,l),
(218,658,l),
(-21,0,l)
);
},
{
closed = 1;
nodes = (
(382,655,o),
(228,19,o),
(514,19,c),
(536,79,l),
(239,79,o),
(461,725,o),
(236,725,c),
(171,655,l)
);
}
);
width = 680;
}
);
},
{
glyphname = N.002;
lastChange = "2025-12-05 03:06:07 +0000";
layers = (
{
hints = (
{
name = _corner.rightSerif;
options = 1;
origin = (1,0);
type = Corner;
},
{
name = _corner.rightSerif;
options = 1;
origin = (1,2);
type = Corner;
},
{
name = _corner.leftSerif;
origin = (1,3);
type = Corner;
},
{
name = _corner.leftSerif;
origin = (0,1);
type = Corner;
},
{
name = _corner.rightSerif;
options = 1;
origin = (0,2);
type = Corner;
}
);
layerId = m01;
shapes = (
{
closed = 1;
nodes = (
(527,0,l),
(782,700,l),
(742,700,l),
(487,0,l)
);
},
{
closed = 1;
nodes = (
(19,0,l),
(258,658,l),
(218,658,l),
(-21,0,l)
);
},
{
closed = 1;
nodes = (
(382,655,o),
(228,19,o),
(514,19,c),
(536,79,l),
(239,79,o),
(461,725,o),
(236,725,c),
(171,655,l)
);
}
);
width = 680;
}
);
},
{
glyphname = N.003;
lastChange = "2025-12-05 03:06:07 +0000";
layers = (
{
hints = (
{
name = _corner.rightSerif;
options = 1;
origin = (0,0);
type = Corner;
},
{
name = _corner.rightSerif;
options = 1;
origin = (0,2);
type = Corner;
},
{
name = _corner.leftSerif;
origin = (0,3);
type = Corner;
},
{
name = _corner.rightSerif;
options = 1;
origin = (1,0);
type = Corner;
},
{
name = _corner.leftSerif;
origin = (1,1);
type = Corner;
},
{
name = _corner.leftSerif;
origin = (1,3);
type = Corner;
},
{
name = _corner.rightSerif;
options = 1;
origin = (1,2);
type = Corner;
}
);
layerId = m01;
shapes = (
{
closed = 1;
nodes = (
(39,0,l),
(294,700,l),
(234,700,l),
(-21,0,l)
);
},
{
closed = 1;
nodes = (
(588,0,l),
(843,700,l),
(783,700,l),
(528,0,l)
);
},
{
closed = 1;
nodes = (
(363,649,o),
(632,429,o),
(658,264,c),
(695,402,l),
(648,522,o),
(431,696,o),
(293,734,c),
(183,701,l)
);
}
);
width = 760;
}
);
},
{
glyphname = N.004;
kernLeft = N;
kernRight = N;
layers = (
{
hints = (
{
name = _corner.rightSerif;
options = 1;
origin = (0,0);
scale = (0.8,1);
type = Corner;
},
{
name = _corner.leftSerif;
origin = (0,9);
scale = (0.8,1);
type = Corner;
},
{
name = _corner.rightSerif;
options = 1;
origin = (2,0);
scale = (0.8,1);
type = Corner;
},
{
name = _corner.rightSerif;
options = 1;
origin = (2,2);
scale = (0.8,1);
type = Corner;
},
{
name = _corner.leftSerif;
origin = (2,3);
scale = (0.8,1);
type = Corner;
}
);
layerId = m01;
shapes = (
{
closed = 1;
nodes = (
(496,0,l),
(647,448,ls),
(676,533,o),
(702,641,o),
(651,707,c),
(555,683,l),
(611,659,o),
(656,567,o),
(615,443,cs),
(467,0,l)
);
},
{
closed = 1;
nodes = (
(338,590,o),
(506,460,o),
(566,259,c),
(593,353,l),
(553,464,o),
(399,674,o),
(261,712,c),
(178,678,l),
(221,678,l),
(256,630,l),
(271,637,l)
);
},
{
closed = 1;
nodes = (
(37,0,l),
(284,678,l),
(246,678,l),
(-1,0,l)
);
}
);
width = 670;
}
);
},
{
glyphname = N.005;
lastChange = "2025-12-20 13:02:46 +0000";
layers = (
{
hints = (
{
name = _corner.rightSerif;
options = 1;
origin = (0,0);
type = Corner;
},
{
name = _corner.rightSerif;
options = 1;
origin = (0,2);
type = Corner;
},
{
name = _corner.leftSerif;
origin = (0,3);
type = Corner;
}
);
layerId = m01;
shapes = (
{
closed = 1;
nodes = (
(39,0,l),
(282,678,l),
(222,678,l),
(-21,0,l)
);
},
{
closed = 1;
nodes = (
(576,-40,l),
(649,254,o),
(914,475,o),
(798,728,c),
(700,665,l),
(812,458,o),
(661,282,o),
(585,87,c),
(563,-40,l)
);
},
{
closed = 1;
nodes = (
(352,625,o),
(563,180,o),
(563,-40,c),
(618,131,l),
(618,294,o),
(419,674,o),
(281,712,c),
(171,679,l)
);
}
);
width = 760;
}
);
},
{
glyphname = N.006;
kernLeft = N;
kernRight = N;
layers = (
{
hints = (
{
name = _corner.rightSerif;
options = 1;
origin = (0,0);
scale = (0.8,1);
type = Corner;
},
{
name = _corner.leftSerif;
origin = (0,9);
scale = (0.8,1);
type = Corner;
},
{
name = _corner.rightSerif;
options = 1;
origin = (2,0);
scale = (0.8,1);
type = Corner;
},
{
name = _corner.leftSerif;
origin = (2,8);
scale = (0.8,1);
type = Corner;
}
);
layerId = m01;
shapes = (
{
closed = 1;
nodes = (
(496,0,l),
(647,448,ls),
(676,533,o),
(702,641,o),
(651,707,c),
(555,683,l),
(611,659,o),
(656,567,o),
(615,443,cs),
(467,0,l)
);
},
{
closed = 1;
nodes = (
(342,595,o),
(506,460,o),
(566,259,c),
(593,353,l),
(553,464,o),
(399,674,o),
(261,712,c),
(178,678,l),
(221,678,l),
(260,635,l),
(275,642,l)
);
},
{
closed = 1;
nodes = (
(37,0,l),
(284,678,l),
(247,678,l),
(179,678,l),
(179,663,l),
(225,660,o),
(233,643,o),
(213,587,c),
(-1,0,l)
);
}
);
width = 670;
}
);
},
{
glyphname = O.001;
layers = (
{
backgroundImage = {
angle = -89;
imagePath = /Users/nathanlew/Documents/Downloads/IMG_9975.HEIC;
locked = 1;
pos = (-412,1301);
scale = (0.8,0.8);
};
layerId = m01;
shapes = (
{
closed = 1;
nodes = (
(628,-20,o),
(814,252,o),
(814,445,cs),
(814,585,o),
(724,720,o),
(529,720,cs),
(260,720,o),
(69,433,o),
(69,230,cs),
(69,70,o),
(184,-20,o),
(369,-20,cs)
);
},
{
closed = 1;
nodes = (
(233,30,o),
(163,150,o),
(163,270,cs),
(163,481,o),
(281,683,o),
(491,683,cs),
(651,683,o),
(713,550,o),
(713,420,cs),
(713,247,o),
(623,30,o),
(373,30,cs)
);
}
);
width = 840;
}
);
},
{
glyphname = O.002;
lastChange = "2025-12-22 23:46:58 +0000";
layers = (
{
backgroundImage = {
angle = -89;
imagePath = /Users/nathanlew/Documents/Downloads/IMG_9975.HEIC;
locked = 1;
pos = (-412,1301);
scale = (0.8,0.8);
};
layerId = m01;
shapes = (
{
closed = 1;
nodes = (
(623,-10,o),
(821,152,o),
(821,430,cs),
(821,608,o),
(683,710,o),
(506,710,cs),
(289,710,o),
(91,548,o),
(91,270,cs),
(91,92,o),
(229,-10,o),
(406,-10,cs)
);
},
{
closed = 1;
nodes = (
(271,25,o),
(166,170,o),
(166,335,c),
(166,500,o),
(281,675,o),
(461,675,cs),
(641,675,o),
(746,530,o),
(746,365,cs),
(746,200,o),
(631,25,o),
(451,25,cs)
);
}
);
width = 840;
}
);
},
{
glyphname = O.003;
lastChange = "2025-12-21 06:10:51 +0000";
layers = (
{
backgroundImage = {
angle = -89;
imagePath = /Users/nathanlew/Documents/Downloads/IMG_9975.HEIC;
locked = 1;
pos = (-412,1301);
scale = (0.8,0.8);
};
layerId = m01;
shapes = (
{
closed = 1;
nodes = (
(653,-20,o),
(836,182,o),
(836,420,cs),
(836,618,o),
(683,720,o),
(526,720,cs),
(259,720,o),
(76,518,o),
(76,280,cs),
(76,82,o),
(219,-20,o),
(386,-20,cs)
);
},
{
closed = 1;
nodes = (
(241,25,o),
(161,170,o),
(161,335,cs),
(161,505,o),
(261,675,o),
(491,675,cs),
(661,675,o),
(751,530,o),
(751,365,cs),
(751,195,o),
(651,25,o),
(421,25,cs)
);
}
);
width = 840;
}
);
},
{
glyphname = O.100;
lastChange = "2025-12-21 06:19:55 +0000";
layers = (
{
backgroundImage = {
angle = -89;
imagePath = /Users/nathanlew/Documents/Downloads/IMG_9975.HEIC;
locked = 1;
pos = (-412,1301);
scale = (0.8,0.8);
};
layerId = m01;
shapes = (
{
closed = 1;
nodes = (
(653,-10,o),
(836,182,o),
(836,420,cs),
(836,618,o),
(683,710,o),
(526,710,cs),
(259,710,o),
(76,518,o),
(76,280,cs),
(76,82,o),
(219,-10,o),
(386,-10,cs)
);
},
{
closed = 1;
nodes = (
(241,25,o),
(161,170,o),
(161,335,cs),
(161,505,o),
(261,675,o),
(491,675,cs),
(661,675,o),
(751,530,o),
(751,365,cs),
(751,195,o),
(651,25,o),
(421,25,cs)
);
}
);
width = 840;
}
);
},
{
glyphname = O.102;
lastChange = "2025-12-21 06:31:49 +0000";
layers = (
{
backgroundImage = {
angle = -89;
imagePath = /Users/nathanlew/Documents/Downloads/IMG_9975.HEIC;
locked = 1;
pos = (-412,1301);
scale = (0.8,0.8);
};
layerId = m01;
shapes = (
{
closed = 1;
nodes = (
(673,-10,o),
(841,172,o),
(841,410,cs),
(841,568,o),
(733,710,o),
(506,710,cs),
(239,710,o),
(71,528,o),
(71,290,cs),
(71,132,o),
(179,-10,o),
(406,-10,cs)
);
},
{
closed = 1;
nodes = (
(211,20,o),
(161,200,o),
(161,325,cs),
(161,495,o),
(261,680,o),
(491,680,cs),
(701,680,o),
(751,500,o),
(751,375,cs),
(751,205,o),
(651,20,o),
(421,20,cs)
);
}
);
width = 840;
}
);
},
{
glyphname = P.001;
layers = (
{
layerId = m01;
shapes = (
{
alignment = -1;
pos = (3,0);
ref = _part.stem;
},
{
closed = 1;
nodes = (
(377,680,l),
(414,680,o),
(502,665,o),
(502,571,cs),
(502,454,o),
(270,236,o),
(123,236,c),
(120,205,l),
(275,205,o),
(589,433,o),
(589,566,cs),
(589,658,o),
(472,700,o),
(377,700,c),
(357,700,l),
(357,680,l)
);
}
);
width = 520;
}
);
},
{
glyphname = P.002;
kernLeft = P;
kernRight = P;
layers = (
{
hints = (
{
name = _corner.rightSerif;
options = 1;
origin = (1,0);
type = Corner;
},
{
name = _corner.rightSerif;
options = 1;
origin = (1,2);
type = Corner;
},
{
name = _corner.leftSerif;
origin = (1,3);
type = Corner;
}
);
layerId = m01;
shapes = (
{
closed = 1;
nodes = (
(287,678,l),
(392,678,ls),
(502,678,o),
(562,625,o),
(562,560,cs),
(562,500,o),
(507,377,o),
(232,289,cs),
(163,267,l),
(154,236,l),
(232,261,ls),
(547,362,o),
(637,482,o),
(637,570,cs),
(637,668,o),
(534,700,o),
(407,700,cs),
(287,700,l)
);
},
{
closed = 1;
nodes = (
(80,0,l),
(335,700,l),
(265,700,l),
(10,0,l)
);
}
);
width = 560;
}
);
},
{
glyphname = Q.001;
layers = (
{
backgroundImage = {
angle = -90;
imagePath = "/Users/nathanlew/Documents/Desktop/Images/Q_-Regular.tif";
pos = (-1118,2377);
scale = (0.88,0.88);
};
layerId = m01;
shapes = (
{
closed = 1;
nodes = (
(446,203,o),
(472,-118,o),
(636,-118,cs),
(702,-118,o),
(725,-80,o),
(740,-48,c),
(730,-42,l),
(714,-72,o),
(683,-86,o),
(653,-86,cs),
(564,-86,o),
(541,220,o),
(309,220,c),
(305,203,l)
);
},
{
closed = 1;
nodes = (
(628,-20,o),
(814,252,o),
(814,445,cs),
(814,585,o),
(724,720,o),
(529,720,cs),
(260,720,o),
(69,433,o),
(69,230,cs),
(69,70,o),
(184,-20,o),
(369,-20,cs)
);
},
{
closed = 1;
nodes = (
(233,30,o),
(163,150,o),
(163,270,cs),
(163,481,o),
(281,683,o),
(491,683,cs),
(651,683,o),
(713,550,o),
(713,420,cs),
(713,247,o),
(623,30,o),
(373,30,cs)
);
}
);
width = 760;
}
);
},
{
glyphname = Q.002;
layers = (
{
backgroundImage = {
angle = -90;
imagePath = "/Users/nathanlew/Documents/Desktop/Images/Q_-Regular.tif";
pos = (-1118,2377);
scale = (0.88,0.88);
};
layerId = m01;
shapes = (
{
closed = 1;
nodes = (
(639,203,o),
(592,-138,o),
(816,-138,cs),
(882,-138,o),
(935,-90,o),
(950,-58,c),
(936,-52,l),
(920,-82,o),
(882,-100,o),
(832,-100,cs),
(703,-100,o),
(680,220,o),
(329,220,c),
(325,203,l)
);
},
{
closed = 1;
nodes = (
(663,-30,o),
(836,172,o),
(836,410,cs),
(836,568,o),
(733,710,o),
(516,710,cs),
(269,710,o),
(96,528,o),
(96,290,cs),
(96,132,o),
(200,8,o),
(416,-10,cs)
);
},
{
closed = 1;
nodes = (
(231,20,o),
(191,200,o),
(191,325,cs),
(191,495,o),
(291,680,o),
(501,680,cs),
(701,680,o),
(741,500,o),
(741,375,cs),
(741,205,o),
(641,20,o),
(431,20,cs)
);
}
);
width = 1080;
}
);
},
{
glyphname = Q.003;
layers = (
{
backgroundImage = {
angle = -90;
imagePath = "/Users/nathanlew/Documents/Desktop/Images/Q_-Regular.tif";
pos = (-1118,2377);
scale = (0.88,0.88);
};
layerId = m01;
shapes = (
{
closed = 1;
nodes = (
(467,-52,o),
(552,-108,o),
(776,-108,c),
(782,-90,l),
(653,-90,o),
(555,-11,o),
(421,156,c),
(348,107,l)
);
},
{
closed = 1;
nodes = (
(663,-30,o),
(836,172,o),
(836,410,cs),
(836,568,o),
(733,710,o),
(516,710,cs),
(269,710,o),
(96,528,o),
(96,290,cs),
(96,132,o),
(200,8,o),
(416,-10,cs)
);
},
{
closed = 1;
nodes = (
(231,20,o),
(191,200,o),
(191,325,cs),
(191,495,o),
(291,680,o),
(501,680,cs),
(701,680,o),
(741,500,o),
(741,375,cs),
(741,205,o),
(641,20,o),
(431,20,cs)
);
}
);
width = 880;
}
);
},
{
glyphname = R.001;
layers = (
{
layerId = m01;
shapes = (
{
alignment = -1;
pos = (13,0);
ref = _part.stem;
},
{
closed = 1;
nodes = (
(367,680,l),
(404,680,o),
(502,671,o),
(502,587,cs),
(502,500,o),
(337,315,o),
(160,315,c),
(154,297,l),
(339,297,o),
(605,469,o),
(605,582,cs),
(605,664,o),
(472,700,o),
(397,700,c),
(357,700,l),
(357,680,l)
);
},
{
closed = 1;
nodes = (
(437,239,o),
(343,157,o),
(343,85,cs),
(343,32,o),
(377,0,o),
(434,0,cs),
(509,0,o),
(531,25,o),
(545,51,c),
(533,59,l),
(517,33,o),
(502,28,o),
(479,28,cs),
(434,28,o),
(427,56,o),
(427,85,cs),
(427,142,o),
(492,217,o),
(325,358,c),
(316,343,l)
);
}
);
width = 640;
}
);
},
{
glyphname = R.002;
lastChange = "2025-12-22 01:50:16 +0000";
layers = (
{
hints = (
{
name = _corner.rightSerif;
options = 1;
origin = (0,0);
type = Corner;
},
{
name = _corner.rightSerif;
options = 1;
origin = (0,2);
type = Corner;
},
{
name = _corner.leftSerif;
origin = (0,3);
type = Corner;
}
);
layerId = m01;
shapes = (
{
closed = 1;
nodes = (
(142,0,l),
(397,700,l),
(307,700,l),
(52,0,l)
);
},
{
closed = 1;
nodes = (
(337,675,l),
(442,675,ls),
(552,675,o),
(612,660,o),
(612,595,cs),
(612,535,o),
(576,324,o),
(292,275,cs),
(223,263,l),
(214,236,l),
(292,251,ls),
(617,314,o),
(707,512,o),
(707,600,cs),
(707,698,o),
(584,700,o),
(457,700,cs),
(337,700,l)
);
},
{
closed = 1;
nodes = (
(331,278,l),
(513,295,o),
(589,10,o),
(527,-115,c),
(543,-115,l),
(662,38,l),
(662,137,o),
(578,252,o),
(430,320,c)
);
}
);
width = 800;
}
);
},
{
glyphname = R.003;
layers = (
{
hints = (
{
name = _corner.rightSerif;
options = 1;
origin = (0,0);
type = Corner;
},
{
name = _corner.rightSerif;
options = 1;
origin = (0,2);
type = Corner;
},
{
name = _corner.leftSerif;
origin = (0,3);
type = Corner;
}
);
layerId = m01;
shapes = (
{
closed = 1;
nodes = (
(142,0,l),
(397,700,l),
(307,700,l),
(52,0,l)
);
},
{
closed = 1;
nodes = (
(337,675,l),
(442,675,ls),
(552,675,o),
(612,660,o),
(612,595,cs),
(612,535,o),
(576,354,o),
(292,305,cs),
(223,293,l),
(214,266,l),
(292,281,ls),
(617,344,o),
(707,512,o),
(707,600,cs),
(707,698,o),
(584,700,o),
(457,700,cs),
(337,700,l)
);
},
{
closed = 1;
nodes = (
(362,305,l),
(391,186,o),
(456,81,o),
(582,0,c),
(716,0,l),
(724,10,l),
(550,117,o),
(514,170,o),
(454,340,c)
);
}
);
width = 870;
}
);
},
{
glyphname = R.004;
layers = (
{
hints = (
{
name = _corner.rightSerif;
options = 1;
origin = (0,0);
type = Corner;
},
{
name = _corner.rightSerif;
options = 1;
origin = (0,2);
type = Corner;
},
{
name = _corner.leftSerif;
origin = (0,3);
type = Corner;
}
);
layerId = m01;
shapes = (
{
closed = 1;
nodes = (
(142,0,l),
(397,700,l),
(307,700,l),
(52,0,l)
);
},
{
closed = 1;
nodes = (
(337,675,l),
(442,675,ls),
(552,675,o),
(612,660,o),
(612,595,cs),
(612,535,o),
(576,354,o),
(292,305,cs),
(223,293,l),
(214,266,l),
(292,281,ls),
(617,344,o),
(707,512,o),
(707,600,cs),
(707,698,o),
(584,700,o),
(457,700,cs),
(337,700,l)
);
},
{
closed = 1;
nodes = (
(362,305,l),
(391,186,o),
(500,45,o),
(672,0,c),
(716,0,l),
(724,10,l),
(591,48,o),
(514,170,o),
(454,340,c)
);
}
);
width = 870;
}
);
},
{
glyphname = R.005;
lastChange = "2025-12-22 05:40:11 +0000";
layers = (
{
hints = (
{
name = _corner.rightSerif;
options = 1;
origin = (0,0);
type = Corner;
},
{
name = _corner.rightSerif;
options = 1;
origin = (0,2);
type = Corner;
},
{
name = _corner.leftSerif;
origin = (0,3);
type = Corner;
}
);
layerId = m01;
shapes = (
{
closed = 1;
nodes = (
(142,0,l),
(397,700,l),
(307,700,l),
(52,0,l)
);
},
{
closed = 1;
nodes = (
(337,675,l),
(442,675,ls),
(552,675,o),
(602,660,o),
(602,595,cs),
(602,535,o),
(523,416,o),
(440,384,cs),
(348,349,l),
(358,319,l),
(435,354,ls),
(540,402,o),
(697,512,o),
(697,600,cs),
(697,698,o),
(584,700,o),
(457,700,cs),
(337,700,l)
);
},
{
closed = 1;
nodes = (
(348,349,l),
(367,164,o),
(499,7,o),
(716,-10,c),
(724,0,l),
(587,16,o),
(440,215,o),
(440,384,c)
);
}
);
width = 870;
}
);
},
{
glyphname = R.006;
layers = (
{
hints = (
{
name = _corner.rightSerif;
options = 1;
origin = (0,0);
type = Corner;
},
{
name = _corner.rightSerif;
options = 1;
origin = (0,2);
type = Corner;
},
{
name = _corner.leftSerif;
origin = (0,3);
type = Corner;
}
);
layerId = m01;
shapes = (
{
closed = 1;
nodes = (
(142,0,l),
(397,700,l),
(307,700,l),
(52,0,l)
);
},
{
closed = 1;
nodes = (
(337,675,l),
(442,675,ls),
(552,675,o),
(602,660,o),
(602,595,cs),
(602,535,o),
(576,444,o),
(292,395,cs),
(223,383,l),
(214,356,l),
(292,371,ls),
(617,434,o),
(697,512,o),
(697,600,cs),
(697,698,o),
(584,700,o),
(457,700,cs),
(337,700,l)
);
},
{
closed = 1;
nodes = (
(392,405,l),
(411,220,o),
(499,37,o),
(716,-10,c),
(724,0,l),
(587,46,o),
(484,271,o),
(484,440,c)
);
}
);
width = 870;
}
);
},
{
glyphname = R.007;
kernLeft = R;
kernRight = R;
layers = (
{
hints = (
{
name = _corner.rightSerif;
options = 1;
origin = (2,0);
type = Corner;
},
{
name = _corner.rightSerif;
options = 1;
origin = (2,2);
type = Corner;
},
{
name = _corner.leftSerif;
origin = (2,3);
type = Corner;
}
);
layerId = m01;
shapes = (
{
closed = 1;
nodes = (
(330,312,l),
(359,193,o),
(408,32,o),
(704,-10,c),
(705,8,l),
(492,46,o),
(436,184,o),
(400,339,c)
);
},
{
closed = 1;
nodes = (
(287,678,l),
(392,678,ls),
(502,678,o),
(562,625,o),
(562,560,cs),
(562,500,o),
(507,377,o),
(232,289,cs),
(163,267,l),
(154,236,l),
(232,261,ls),
(547,362,o),
(637,482,o),
(637,570,cs),
(637,668,o),
(534,700,o),
(407,700,cs),
(287,700,l)
);
},
{
closed = 1;
nodes = (
(80,0,l),
(335,700,l),
(265,700,l),
(10,0,l)
);
}
);
width = 805;
}
);
},
{
glyphname = R.008;
kernLeft = R;
kernRight = R;
layers = (
{
hints = (
{
name = _corner.rightSerif;
options = 1;
origin = (2,0);
type = Corner;
},
{
name = _corner.rightSerif;
options = 1;
origin = (2,2);
type = Corner;
},
{
name = _corner.leftSerif;
origin = (2,3);
type = Corner;
}
);
layerId = m01;
shapes = (
{
closed = 1;
nodes = (
(330,401,l),
(359,282,o),
(408,32,o),
(704,-10,c),
(705,8,l),
(492,46,o),
(436,263,o),
(400,418,c)
);
},
{
closed = 1;
nodes = (
(287,678,l),
(392,678,ls),
(502,678,o),
(562,645,o),
(562,580,cs),
(562,520,o),
(509,411,o),
(252,411,cs),
(174,411,l),
(174,386,l),
(252,386,ls),
(503,386,o),
(637,502,o),
(637,590,cs),
(637,688,o),
(534,700,o),
(407,700,cs),
(287,700,l)
);
},
{
closed = 1;
nodes = (
(80,0,l),
(335,700,l),
(265,700,l),
(10,0,l)
);
}
);
width = 815;
}
);
},
{
glyphname = R.009;
lastChange = "2025-12-22 22:13:48 +0000";
layers = (
{
hints = (
{
name = _corner.rightSerif;
options = 1;
origin = (0,0);
type = Corner;
},
{
name = _corner.rightSerif;
options = 1;
origin = (0,2);
type = Corner;
},
{
name = _corner.leftSerif;
origin = (0,3);
type = Corner;
}
);
layerId = m01;
shapes = (
{
closed = 1;
nodes = (
(142,0,l),
(397,700,l),
(307,700,l),
(52,0,l)
);
},
{
closed = 1;
nodes = (
(337,670,l),
(392,670,ls),
(493,670,o),
(576,638,o),
(577,568,cs),
(578,489,o),
(485,370,o),
(307,339,cs),
(238,327,l),
(229,300,l),
(307,315,ls),
(637,378,o),
(653,503,o),
(653,551,cs),
(653,639,o),
(584,700,o),
(457,700,cs),
(337,700,l)
);
},
{
closed = 1;
nodes = (
(381,336,l),
(418,69,o),
(463,-23,o),
(672,-23,c),
(680,-13,l),
(543,3,o),
(483,111,o),
(448,351,c)
);
}
);
width = 870;
}
);
},
{
glyphname = R.010;
kernLeft = R;
kernRight = R;
layers = (
{
hints = (
{
name = _corner.rightSerif;
options = 1;
origin = (2,0);
type = Corner;
},
{
name = _corner.rightSerif;
options = 1;
origin = (2,2);
type = Corner;
},
{
name = _corner.leftSerif;
origin = (2,3);
type = Corner;
}
);
layerId = m01;
shapes = (
{
closed = 1;
nodes = (
(330,401,l),
(339,282,o),
(368,32,o),
(624,-10,c),
(625,8,l),
(452,46,o),
(416,263,o),
(400,418,c)
);
},
{
closed = 1;
nodes = (
(287,678,l),
(392,678,ls),
(502,678,o),
(562,645,o),
(562,580,cs),
(562,520,o),
(509,411,o),
(252,411,cs),
(174,411,l),
(174,386,l),
(252,386,ls),
(503,386,o),
(637,502,o),
(637,590,cs),
(637,688,o),
(534,700,o),
(407,700,cs),
(287,700,l)
);
},
{
closed = 1;
nodes = (
(80,0,l),
(335,700,l),
(265,700,l),
(10,0,l)
);
}
);
width = 745;
}
);
},
{
glyphname = R.011;
kernLeft = R;
kernRight = R;
layers = (
{
hints = (
{
name = _corner.rightSerif;
options = 1;
origin = (2,0);
type = Corner;
},
{
name = _corner.rightSerif;
options = 1;
origin = (2,2);
type = Corner;
},
{
name = _corner.leftSerif;
origin = (2,3);
type = Corner;
}
);
layerId = m01;
shapes = (
{
closed = 1;
nodes = (
(310,351,l),
(332,195,o),
(409,52,o),
(624,-10,c),
(625,6,l),
(440,75,o),
(380,251,o),
(380,378,c)
);
},
{
closed = 1;
nodes = (
(287,678,l),
(392,678,ls),
(502,678,o),
(562,635,o),
(562,570,cs),
(562,510,o),
(504,401,o),
(252,353,cs),
(174,338,l),
(174,311,l),
(252,326,ls),
(498,373,o),
(642,492,o),
(642,580,cs),
(642,678,o),
(534,700,o),
(407,700,cs),
(287,700,l)
);
},
{
closed = 1;
nodes = (
(80,0,l),
(335,700,l),
(265,700,l),
(10,0,l)
);
}
);
width = 745;
}
);
},
{
glyphname = R.100;
lastChange = "2025-12-22 01:45:18 +0000";
layers = (
{
hints = (
{
name = _corner.rightSerif;
options = 1;
origin = (0,0);
type = Corner;
},
{
name = _corner.rightSerif;
options = 1;
origin = (0,2);
type = Corner;
},
{
name = _corner.leftSerif;
origin = (0,3);
type = Corner;
}
);
layerId = m01;
shapes = (
{
closed = 1;
nodes = (
(142,0,l),
(397,700,l),
(307,700,l),
(52,0,l)
);
},
{
closed = 1;
nodes = (
(337,675,l),
(442,675,ls),
(552,675,o),
(612,660,o),
(612,595,cs),
(612,535,o),
(576,384,o),
(292,335,cs),
(223,323,l),
(214,296,l),
(292,311,ls),
(617,374,o),
(707,512,o),
(707,600,cs),
(707,698,o),
(584,700,o),
(457,700,cs),
(337,700,l)
);
},
{
closed = 1;
nodes = (
(392,345,l),
(564,262,o),
(463,104,o),
(572,0,c),
(704,0,l),
(704,10,l),
(556,149,o),
(705,264,o),
(500,390,c)
);
}
);
width = 880;
}
);
},
{
glyphname = S.001;
layers = (
{
backgroundImage = {
angle = -90;
imagePath = "/Users/nathanlew/Documents/Desktop/Images/S_-Regular.tif";
locked = 1;
pos = (-1158,1378);
scale = (0.88,0.88);
};
layerId = m01;
shapes = (
{
closed = 1;
nodes = (
(469,-20,o),
(609,95,o),
(609,266,cs),
(609,507,o),
(268,427,o),
(268,576,cs),
(268,635,o),
(336,699,o),
(411,699,cs),
(506,699,o),
(576,617,o),
(550,534,c),
(542,511,l),
(557,506,l),
(602,640,l),
(584,646,l),
(568,690,o),
(503,720,o),
(440,720,cs),
(347,720,o),
(238,684,o),
(238,550,cs),
(238,336,o),
(570,386,o),
(570,228,cs),
(570,110,o),
(444,7,o),
(299,7,cs),
(215,7,o),
(123,67,o),
(123,179,cs),
(123,238,o),
(153,318,o),
(181,358,c),
(76,313,l),
(55,284,o),
(44,238,o),
(44,173,cs),
(44,98,o),
(104,-20,o),
(285,-20,cs)
);
}
);
width = 660;
}
);
},
{
glyphname = S.002;
layers = (
{
backgroundImage = {
angle = -90;
imagePath = "/Users/nathanlew/Documents/Desktop/Images/S_-Regular.tif";
locked = 1;
pos = (-1158,1378);
scale = (0.88,0.88);
};
layerId = m01;
shapes = (
{
closed = 1;
nodes = (
(429,-20,o),
(589,74,o),
(589,246,cs),
(589,376,o),
(312,447,o),
(312,566,cs),
(312,633,o),
(366,699,o),
(426,699,cs),
(520,699,o),
(570,642,o),
(606,509,c),
(621,518,l),
(622,651,l),
(597,656,l),
(563,698,o),
(516,725,o),
(440,725,cs),
(337,725,o),
(247,637,o),
(247,523,cs),
(247,386,o),
(520,316,o),
(520,178,cs),
(520,60,o),
(394,10,o),
(309,10,cs),
(176,10,o),
(128,104,o),
(128,196,cs),
(128,268,o),
(157,358,o),
(171,378,c),
(155,383,l),
(51,212,l),
(65,188,l),
(71,112,o),
(133,-20,o),
(305,-20,cs)
);
}
);
width = 660;
}
);
},
{
glyphname = S.003;
layers = (
{
backgroundImage = {
angle = -90;
imagePath = "/Users/nathanlew/Documents/Desktop/Images/S_-Regular.tif";
locked = 1;
pos = (-1158,1378);
scale = (0.88,0.88);
};
layerId = m01;
shapes = (
{
closed = 1;
nodes = (
(419,-20,o),
(599,74,o),
(599,246,cs),
(599,376,o),
(272,447,o),
(272,566,cs),
(272,673,o),
(366,694,o),
(426,694,cs),
(510,694,o),
(571,642,o),
(596,509,c),
(611,518,l),
(612,651,l),
(587,652,l),
(553,694,o),
(506,720,o),
(440,720,cs),
(337,720,o),
(207,677,o),
(207,523,cs),
(207,386,o),
(520,316,o),
(520,178,cs),
(520,60,o),
(384,10,o),
(299,10,cs),
(166,10,o),
(108,104,o),
(108,196,cs),
(108,268,o),
(137,358,o),
(151,378,c),
(135,383,l),
(31,212,l),
(45,188,l),
(51,112,o),
(123,-20,o),
(295,-20,cs)
);
}
);
width = 660;
}
);
},
{
glyphname = T.001;
lastChange = "2025-12-05 03:06:07 +0000";
layers = (
{
layerId = m01;
shapes = (
{
closed = 1;
nodes = (
(487,-10,o),
(646,170,o),
(679,305,c),
(588,322,l),
(570,195,o),
(462,15,o),
(306,15,cs),
(196,15,o),
(137,103,o),
(137,193,cs),
(137,352,o),
(311,509,o),
(428,615,cs),
(482,664,o),
(538,677,o),
(576,677,cs),
(666,677,l),
(666,700,l),
(225,700,l),
(225,680,l),
(323,680,ls),
(355,680,o),
(396,669,o),
(396,655,cs),
(396,647,o),
(390,636,o),
(381,628,c),
(259,521,o),
(61,355,o),
(61,193,cs),
(61,21,o),
(184,-10,o),
(306,-10,cs)
);
}
);
width = 680;
}
);
},
{
glyphname = T.002;
lastChange = "2025-12-05 03:06:07 +0000";
layers = (
{
layerId = m01;
shapes = (
{
closed = 1;
nodes = (
(487,-10,o),
(646,170,o),
(679,305,c),
(588,322,l),
(570,195,o),
(462,15,o),
(306,15,cs),
(196,15,o),
(137,103,o),
(137,193,cs),
(137,352,o),
(331,528,o),
(448,635,cs),
(481,664,o),
(515,677,o),
(543,677,cs),
(566,677,ls),
(617,677,o),
(620,672,o),
(689,611,c),
(709,611,l),
(646,700,l),
(245,700,l),
(130,611,l),
(151,611,l),
(238,676,o),
(294,680,o),
(327,680,cs),
(362,680,ls),
(390,680,o),
(422,657,o),
(388,635,c),
(266,528,o),
(61,355,o),
(61,193,cs),
(61,21,o),
(184,-10,o),
(306,-10,cs)
);
}
);
width = 680;
}
);
},
{
glyphname = T.003;
layers = (
{
layerId = m01;
shapes = (
{
alignment = -1;
pos = (218,0);
ref = _part.stem;
},
{
closed = 1;
nodes = (
(606,680,l),
(657,680,o),
(702,632,o),
(733,561,c),
(755,561,l),
(701,700,l),
(528,700,l),
(533,680,l)
);
},
{
closed = 1;
nodes = (
(412,700,l),
(285,700,l),
(150,561,l),
(171,561,l),
(228,626,o),
(337,680,o),
(378,680,c),
(412,680,l)
);
}
);
width = 680;
}
);
},
{
glyphname = U.001;
layers = (
{
hints = (
{
name = _corner.rightSerif;
options = 1;
origin = (1,0);
type = Corner;
},
{
name = _corner.leftSerif;
origin = (1,1);
type = Corner;
},
{
name = _corner.leftSerif;
origin = (0,19);
type = Corner;
},
{
name = _corner.rightSerif;
options = 1;
origin = (1,2);
type = Corner;
}
);
layerId = m01;
shapes = (
{
closed = 1;
nodes = (
(371,700,l),
(188,598,o),
(69,411,o),
(69,270,cs),
(69,80,o),
(211,-20,o),
(396,-20,cs),
(577,-20,o),
(651,60,o),
(690,95,c),
(682,176,l),
(653,94,o),
(554,0,o),
(407,0,cs),
(287,0,o),
(153,50,o),
(153,210,cs),
(153,385,o),
(371,632,o),
(521,698,c)
);
},
{
closed = 1;
nodes = (
(718,0,l),
(973,700,l),
(873,700,l),
(618,0,l)
);
}
);
width = 920;
}
);
},
{
glyphname = V.001;
lastChange = "2025-12-05 03:06:07 +0000";
layers = (
{
hints = (
{
name = _corner.leftSerif;
origin = (0,1);
type = Corner;
},
{
name = _corner.rightSerif;
options = 1;
origin = (0,2);
type = Corner;
}
);
layerId = m01;
shapes = (
{
closed = 1;
nodes = (
(106,0,l),
(361,700,l),
(271,700,l),
(16,0,l)
);
},
{
closed = 1;
nodes = (
(686,679,l),
(691,667,o),
(695,611,o),
(694,589,cs),
(675,287,o),
(400,20,o),
(112,20,c),
(89,20,l),
(89,0,l),
(99,0,l),
(448,0,o),
(786,292,o),
(805,614,cs),
(807,641,o),
(798,700,o),
(792,714,c)
);
}
);
width = 700;
}
);
},
{
glyphname = V.002;
lastChange = "2025-12-05 03:06:07 +0000";
layers = (
{
layerId = m01;
shapes = (
{
closed = 1;
nodes = (
(136,467,o),
(68,183,o),
(266,0,c),
(437,213,o),
(805,266,o),
(805,614,cs),
(805,641,o),
(798,700,o),
(792,714,c),
(716,659,l),
(721,647,o),
(725,591,o),
(724,569,cs),
(705,267,o),
(418,237,o),
(313,94,c),
(161,267,o),
(300,525,o),
(346,700,c),
(231,700,l)
);
}
);
width = 700;
}
);
},
{
glyphname = V.003;
layers = (
{
layerId = m01;
shapes = (
{
closed = 1;
nodes = (
(493,159,o),
(696,366,o),
(796,698,c),
(761,700,l),
(640,432,o),
(556,299,o),
(320,114,c),
(248,227,o),
(200,485,o),
(296,700,c),
(191,700,l),
(96,467,o),
(138,183,o),
(266,0,c)
);
}
);
width = 700;
}
);
},
{
glyphname = V.004;
layers = (
{
hints = (
{
name = _corner.leftSerif;
origin = (0,13);
type = Corner;
},
{
name = _corner.leftSerif;
origin = (1,1);
type = Corner;
},
{
name = _corner.rightSerif;
options = 1;
origin = (1,2);
type = Corner;
},
{
name = _corner.rightSerif;
options = 1;
origin = (0,0);
type = Corner;
}
);
layerId = m01;
shapes = (
{
closed = 1;
nodes = (
(301,700,l),
(118,598,o),
(107,500,o),
(107,420,cs),
(107,255,o),
(447,328,o),
(441,0,c),
(484,20,l),
(541,355,o),
(171,274,o),
(171,421,cs),
(171,596,o),
(301,617,o),
(451,698,c)
);
},
{
closed = 1;
nodes = (
(541,0,l),
(796,700,l),
(696,700,l),
(441,0,l)
);
}
);
width = 700;
}
);
},
{
glyphname = V.005;
layers = (
{
hints = (
{
name = _corner.leftSerif;
options = 1;
origin = (0,15);
scale = (-1,1);
type = Corner;
},
{
name = _corner.leftSerif;
origin = (1,1);
type = Corner;
},
{
name = _corner.rightSerif;
options = 1;
origin = (1,2);
type = Corner;
}
);
layerId = m01;
shapes = (
{
closed = 1;
nodes = (
(680,652,o),
(774,639,o),
(774,517,cs),
(774,301,o),
(243,331,o),
(57,20,c),
(96,20,l),
(243,301,o),
(835,236,o),
(835,560,cs),
(835,636,o),
(705,681,o),
(765,681,c),
(765,701,l),
(705,700,l),
(595,698,l)
);
},
{
closed = 1;
nodes = (
(88,0,l),
(343,700,l),
(243,700,l),
(-12,0,l)
);
}
);
width = 700;
}
);
},
{
glyphname = V.006;
lastChange = "2025-12-19 22:39:57 +0000";
layers = (
{
hints = (
{
name = _corner.leftSerif;
origin = (1,1);
type = Corner;
},
{
name = _corner.rightSerif;
options = 1;
origin = (1,2);
type = Corner;
}
);
layerId = m01;
shapes = (
{
closed = 1;
nodes = (
(654,664,l),
(815,398,o),
(243,331,o),
(57,20,c),
(96,20,l),
(243,301,o),
(906,388,o),
(743,712,c)
);
},
{
closed = 1;
nodes = (
(88,0,l),
(343,700,l),
(243,700,l),
(-12,0,l)
);
}
);
width = 680;
}
);
},
{
glyphname = V.007;
lastChange = "2025-12-22 22:43:57 +0000";
layers = (
{
hints = (
{
name = _corner.rightSerif;
options = 1;
origin = (0,3);
type = Corner;
},
{
name = _corner.leftSerif;
origin = (0,2);
type = Corner;
}
);
layerId = m01;
shapes = (
{
closed = 1;
nodes = (
(309,-20,l),
(392,69,l),
(383,700,l),
(283,700,l),
(296,-20,l)
);
},
{
closed = 1;
nodes = (
(691,685,l),
(928,385,o),
(483,258,o),
(355,68,c),
(392,69,l),
(611,304,o),
(987,425,o),
(783,720,c)
);
}
);
width = 800;
}
);
},
{
glyphname = V.008;
kernLeft = V;
kernRight = V;
layers = (
{
hints = (
{
name = _corner.leftSerif;
origin = (0,11);
scale = (0.8,1);
type = Corner;
},
{
name = _corner.rightSerif;
options = 1;
origin = (0,12);
scale = (0.8,1);
type = Corner;
}
);
layerId = m01;
shapes = (
{
closed = 1;
nodes = (
(250,-18,l),
(503,274,ls),
(707,509,o),
(774,594,o),
(740,707,c),
(644,683,l),
(695,603,o),
(650,495,o),
(549,375,cs),
(324,108,l),
(318,108,l),
(324,700,l),
(248,700,l),
(239,-18,l)
);
}
);
width = 660;
}
);
},
{
glyphname = V.100;
lastChange = "2025-12-21 00:14:48 +0000";
layers = (
{
hints = (
{
name = _corner.rightSerif;
options = 1;
origin = (1,3);
type = Corner;
},
{
name = _corner.leftSerif;
origin = (1,2);
type = Corner;
}
);
layerId = m01;
shapes = (
{
closed = 1;
nodes = (
(657,666,l),
(846,391,o),
(380,345,o),
(108,80,c),
(116,69,l),
(409,303,o),
(906,411,o),
(743,735,c)
);
},
{
closed = 1;
nodes = (
(-10,-20,l),
(116,69,l),
(343,700,l),
(243,700,l),
(-23,-20,l)
);
}
);
width = 680;
}
);
},
{
glyphname = W.001;
lastChange = "2025-12-05 03:06:07 +0000";
layers = (
{
backgroundImage = {
angle = -90;
imagePath = "/Users/nathanlew/Documents/Desktop/Images/W_.001-Regular.tif";
locked = 1;
pos = (-299,2145);
scale = (0.8,0.8);
};
hints = (
{
name = _corner.rightSerif;
options = 1;
origin = (0,0);
type = Corner;
},
{
name = _corner.leftSerif;
origin = (0,11);
type = Corner;
},
{
name = _corner.rightSerif;
options = 1;
origin = (0,12);
type = Corner;
},
{
name = _corner.leftSerif;
origin = (0,15);
type = Corner;
}
);
layerId = m01;
shapes = (
{
closed = 1;
nodes = (
(52,0,l),
(116,78,l),
(215,194,o),
(336,310,o),
(463,402,c),
(442,411,l),
(333,336,o),
(260,270,o),
(167,181,c),
(274,366,o),
(307,565,o),
(307,720,c),
(214,680,l),
(209,460,o),
(191,251,o),
(-8,0,c)
);
},
{
closed = 1;
nodes = (
(493,341,l),
(493,166,o),
(556,52,o),
(678,-19,c),
(794,91,o),
(975,274,o),
(975,439,cs),
(975,604,o),
(873,691,o),
(856,709,c),
(782,625,l),
(844,589,o),
(937,486,o),
(934,400,cs),
(931,314,o),
(829,147,o),
(670,18,c),
(590,91,o),
(509,293,o),
(588,482,c),
(501,457,l)
);
}
);
width = 960;
}
);
},
{
glyphname = W.002;
layers = (
{
backgroundImage = {
angle = -90;
imagePath = "/Users/nathanlew/Documents/Desktop/Images/W_-Regular.tif";
locked = 1;
pos = (-729,2908);
scale = (0.8,0.8);
};
layerId = m01;
shapes = (
{
closed = 1;
nodes = (
(188,1,o),
(496,240,o),
(553,320,c),
(538,384,l),
(455,270,o),
(303,112,o),
(179,57,c),
(140,369,o),
(285,604,o),
(547,709,c),
(357,709,l),
(131,542,o),
(26,236,o),
(85,-20,c)
);
},
{
closed = 1;
nodes = (
(514,223,o),
(588,52,o),
(710,-19,c),
(826,21,o),
(955,215,o),
(955,440,cs),
(955,605,o),
(873,694,o),
(856,712,c),
(782,632,l),
(844,596,o),
(916,487,o),
(914,401,cs),
(911,255,o),
(879,131,o),
(740,42,c),
(660,115,o),
(618,218,o),
(617,407,c),
(538,386,l)
);
}
);
width = 960;
}
);
},
{
glyphname = W.003;
layers = (
{
backgroundImage = {
angle = -90;
imagePath = "/Users/nathanlew/Documents/Desktop/Images/W_-Regular.tif";
locked = 1;
pos = (-192,2149);
scale = (0.8,0.8);
};
hints = (
{
name = _corner.leftSerif;
origin = (0,1);
type = Corner;
},
{
name = _corner.rightSerif;
options = 1;
origin = (0,2);
type = Corner;
},
{
name = _corner.leftSerif;
origin = (1,3);
type = Corner;
}
);
layerId = m01;
shapes = (
{
closed = 1;
nodes = (
(419,0,l),
(344,700,l),
(254,700,l),
(329,0,l)
);
},
{
closed = 1;
nodes = (
(739,-70,l),
(1015,55,o),
(781,581,o),
(747,706,c),
(657,706,l),
(691,581,o),
(894,111,o),
(649,0,c)
);
},
{
closed = 1;
nodes = (
(417,3,l),
(429,162,o),
(668,671,o),
(720,685,c),
(687,706,l),
(631,681,o),
(389,162,o),
(389,16,c)
);
},
{
closed = 1;
nodes = (
(739,-70,l),
(1038,90,o),
(1074,443,o),
(1242,700,c),
(1207,700,l),
(1038,454,o),
(1001,119,o),
(701,-39,c)
);
}
);
width = 1080;
}
);
},
{
glyphname = W.004;
layers = (
{
backgroundImage = {
angle = -90;
imagePath = "/Users/nathanlew/Documents/Desktop/Images/W_-Regular.tif";
locked = 1;
pos = (-192,2149);
scale = (0.8,0.8);
};
hints = (
{
name = _corner.leftSerif;
origin = (0,1);
type = Corner;
},
{
name = _corner.rightSerif;
options = 1;
origin = (0,2);
type = Corner;
},
{
name = _corner.leftSerif;
origin = (1,6);
type = Corner;
},
{
name = _corner.rightSerif;
options = 1;
origin = (3,4);
type = Corner;
},
{
name = _corner.leftSerif;
origin = (3,3);
type = Corner;
}
);
layerId = m01;
shapes = (
{
closed = 1;
nodes = (
(299,0,l),
(344,700,l),
(254,700,l),
(209,0,l)
);
},
{
closed = 1;
nodes = (
(619,-20,l),
(748,38,o),
(810,161,o),
(793,253,cs),
(773,360,o),
(707,439,o),
(707,506,c),
(582,506,l),
(582,381,o),
(679,324,o),
(679,203,cs),
(679,153,o),
(610,66,o),
(529,30,c)
);
},
{
closed = 1;
nodes = (
(297,3,l),
(359,162,o),
(637,430,o),
(760,485,c),
(707,506,l),
(651,481,o),
(319,172,o),
(269,26,c)
);
},
{
closed = 1;
nodes = (
(619,-20,l),
(918,140,o),
(1104,443,o),
(1152,700,c),
(1117,700,l),
(1068,454,o),
(910,196,o),
(610,38,c)
);
}
);
width = 1080;
}
);
},
{
glyphname = W.005;
layers = (
{
backgroundImage = {
angle = -90;
imagePath = "/Users/nathanlew/Documents/Desktop/Images/W_-Regular.tif";
locked = 1;
pos = (-192,2149);
scale = (0.8,0.8);
};
hints = (
{
name = _corner.leftSerif;
origin = (0,9);
type = Corner;
},
{
name = _corner.rightSerif;
options = 1;
origin = (0,10);
type = Corner;
},
{
name = _corner.leftSerif;
origin = (1,9);
type = Corner;
},
{
name = _corner.rightSerif;
options = 1;
origin = (2,2);
type = Corner;
},
{
name = _corner.rightSerif;
options = 1;
origin = (3,2);
type = Corner;
},
{
name = _corner.leftSerif;
origin = (3,1);
type = Corner;
}
);
layerId = m01;
shapes = (
{
closed = 1;
nodes = (
(179,-20,l),
(280,94,o),
(351,225,o),
(351,310,cs),
(351,405,o),
(290,468,o),
(290,567,cs),
(290,605,o),
(309,648,o),
(344,700,c),
(254,700,l),
(215,645,o),
(195,600,o),
(195,559,cs),
(195,467,o),
(247,399,o),
(247,296,cs),
(247,240,o),
(195,119,o),
(99,50,c)
);
},
{
closed = 1;
nodes = (
(579,-20,l),
(690,30,o),
(737,128,o),
(737,213,cs),
(737,227,o),
(735,240,o),
(733,253,cs),
(713,360,o),
(647,439,o),
(647,506,c),
(522,506,l),
(522,381,o),
(619,324,o),
(619,203,cs),
(619,153,o),
(580,96,o),
(499,60,c)
);
},
{
closed = 1;
nodes = (
(179,-20,l),
(643,508,l),
(593,508,l),
(169,40,l)
);
},
{
closed = 1;
nodes = (
(691,70,l),
(1173,698,l),
(1118,698,l),
(644,85,l)
);
}
);
width = 1080;
}
);
},
{
glyphname = W.006;
layers = (
{
backgroundImage = {
angle = -90;
imagePath = "/Users/nathanlew/Documents/Desktop/Images/W_-Regular.tif";
locked = 1;
pos = (-192,2149);
scale = (0.8,0.8);
};
hints = (
{
name = _corner.leftSerif;
origin = (0,9);
type = Corner;
},
{
name = _corner.rightSerif;
options = 1;
origin = (0,10);
type = Corner;
},
{
name = _corner.leftSerif;
origin = (1,6);
type = Corner;
},
{
name = _corner.rightSerif;
options = 1;
origin = (2,2);
type = Corner;
},
{
name = _corner.rightSerif;
options = 1;
origin = (3,2);
type = Corner;
},
{
name = _corner.leftSerif;
origin = (3,1);
type = Corner;
}
);
layerId = m01;
shapes = (
{
closed = 1;
nodes = (
(164,-20,l),
(265,94,o),
(326,225,o),
(326,310,c),
(326,405,o),
(265,468,o),
(265,567,cs),
(265,605,o),
(309,648,o),
(344,700,c),
(254,700,l),
(215,645,o),
(195,600,o),
(195,559,cs),
(195,467,o),
(247,399,o),
(247,296,cs),
(247,240,o),
(195,119,o),
(99,50,c)
);
},
{
closed = 1;
nodes = (
(544,-20,l),
(655,30,o),
(672,128,o),
(672,213,cs),
(672,349,o),
(592,385,o),
(592,506,c),
(507,506,l),
(507,381,o),
(604,324,o),
(604,203,cs),
(604,153,o),
(565,96,o),
(484,60,c)
);
},
{
closed = 1;
nodes = (
(164,-20,l),
(628,505,l),
(578,505,l),
(154,40,l)
);
},
{
closed = 1;
nodes = (
(630,49,l),
(1118,698,l),
(1063,698,l),
(609,85,l)
);
}
);
width = 1040;
}
);
},
{
glyphname = W.007;
lastChange = "2025-12-20 00:00:08 +0000";
layers = (
{
backgroundImage = {
angle = 90;
imagePath = "/Users/nathanlew/Documents/GitHub/font-nouveau/font-nouveau/Images/W_.007-Regular.tif";
locked = 1;
pos = (4861,-947);
scale = (1.4,1.4);
};
hints = (
{
name = _corner.leftSerif;
origin = (1,2);
type = Corner;
},
{
name = _corner.rightSerif;
options = 1;
origin = (1,3);
type = Corner;
}
);
layerId = m01;
shapes = (
{
closed = 1;
nodes = (
(613,375,l),
(511,272,o),
(386,178,o),
(330,87,c),
(362,69,l),
(465,182,o),
(549,273,o),
(635,318,c)
);
},
{
closed = 1;
nodes = (
(289,-20,l),
(362,69,l),
(343,700,l),
(243,700,l),
(276,-20,l)
);
},
{
closed = 1;
nodes = (
(871,685,l),
(1095,401,o),
(799,265,o),
(671,87,c),
(692,69,l),
(911,304,o),
(1167,425,o),
(963,720,c)
);
},
{
closed = 1;
nodes = (
(609,-20,l),
(692,69,l),
(727,193,o),
(666,369,o),
(613,493,c),
(536,384,l),
(589,231,o),
(630,133,o),
(596,-20,c)
);
}
);
width = 1040;
}
);
},
{
glyphname = W.008;
lastChange = "2025-12-19 23:50:45 +0000";
layers = (
{
backgroundImage = {
angle = -90;
imagePath = "/Users/nathanlew/Documents/Desktop/Images/W_-Regular.tif";
locked = 1;
pos = (-192,2149);
scale = (0.8,0.8);
};
hints = (
{
name = _corner.leftSerif;
origin = (1,2);
type = Corner;
},
{
name = _corner.rightSerif;
options = 1;
origin = (1,3);
type = Corner;
},
{
name = _corner.leftSerif;
origin = (3,2);
type = Corner;
},
{
name = _corner.rightSerif;
options = 1;
origin = (3,3);
type = Corner;
}
);
layerId = m01;
shapes = (
{
closed = 1;
nodes = (
(617,437,l),
(541,298,o),
(465,227,o),
(341,99,c),
(362,69,l),
(485,189,o),
(565,274,o),
(638,404,c)
);
},
{
closed = 1;
nodes = (
(279,-20,l),
(362,69,l),
(343,700,l),
(243,700,l),
(266,-20,l)
);
},
{
closed = 1;
nodes = (
(941,685,l),
(1165,401,o),
(779,265,o),
(651,87,c),
(672,69,l),
(891,304,o),
(1237,425,o),
(1033,720,c)
);
},
{
closed = 1;
nodes = (
(589,-20,l),
(672,69,l),
(675,440,l),
(575,440,l),
(576,-20,l)
);
}
);
width = 1040;
}
);
},
{
glyphname = W.009;
lastChange = "2025-12-21 00:19:00 +0000";
layers = (
{
backgroundImage = {
angle = -90;
imagePath = "/Users/nathanlew/Documents/Desktop/Images/W_-Regular.tif";
locked = 1;
pos = (-192,2149);
scale = (0.8,0.8);
};
hints = (
{
name = _corner.leftSerif;
origin = (1,2);
type = Corner;
},
{
name = _corner.rightSerif;
options = 1;
origin = (1,3);
type = Corner;
}
);
layerId = m01;
shapes = (
{
closed = 1;
nodes = (
(584,401,l),
(582,312,o),
(416,188,o),
(341,83,c),
(362,69,l),
(465,179,o),
(542,262,o),
(638,352,c)
);
},
{
closed = 1;
nodes = (
(279,-20,l),
(362,69,l),
(343,700,l),
(243,700,l),
(266,-20,l)
);
},
{
closed = 1;
nodes = (
(941,685,l),
(1178,385,o),
(779,256,o),
(651,78,c),
(672,69,l),
(891,304,o),
(1237,425,o),
(1033,720,c)
);
},
{
closed = 1;
nodes = (
(589,-20,l),
(672,69,l),
(722,215,o),
(737,360,o),
(683,506,c),
(555,455,l),
(577,443,o),
(650,204,o),
(576,-20,c)
);
}
);
width = 1040;
}
);
},
{
glyphname = W.010;
kernLeft = W;
kernRight = W;
layers = (
{
backgroundImage = {
angle = -90;
imagePath = "/Users/nathanlew/Documents/Desktop/Images/W_-Regular.tif";
locked = 1;
pos = (-173,2149);
scale = (0.8,0.8);
};
hints = (
{
name = _corner.leftSerif;
origin = (0,11);
scale = (0.8,1);
type = Corner;
},
{
name = _corner.rightSerif;
options = 1;
origin = (0,12);
scale = (0.8,1);
type = Corner;
},
{
name = _corner.leftSerif;
origin = (1,11);
scale = (0.8,1);
type = Corner;
},
{
name = _corner.rightSerif;
options = 1;
origin = (1,12);
scale = (0.8,1);
type = Corner;
}
);
layerId = m01;
shapes = (
{
closed = 1;
nodes = (
(250,-18,l),
(503,274,ls),
(707,509,o),
(774,594,o),
(740,707,c),
(644,683,l),
(695,603,o),
(650,495,o),
(549,375,cs),
(324,108,l),
(318,108,l),
(324,700,l),
(248,700,l),
(239,-18,l)
);
},
{
closed = 1;
nodes = (
(570,-18,l),
(823,274,ls),
(1027,509,o),
(1094,594,o),
(1060,707,c),
(964,683,l),
(1015,603,o),
(970,495,o),
(869,375,cs),
(644,108,l),
(638,108,l),
(644,700,l),
(568,700,l),
(559,-18,l)
);
}
);
width = 1071;
}
);
},
{
glyphname = W.100;
lastChange = "2025-12-21 00:22:02 +0000";
layers = (
{
backgroundImage = {
angle = -90;
imagePath = "/Users/nathanlew/Documents/Desktop/Images/W_-Regular.tif";
locked = 1;
pos = (-192,2149);
scale = (0.8,0.8);
};
hints = (
{
name = _corner.leftSerif;
origin = (1,2);
type = Corner;
},
{
name = _corner.rightSerif;
options = 1;
origin = (1,3);
type = Corner;
},
{
name = _corner.leftSerif;
origin = (3,2);
type = Corner;
},
{
name = _corner.rightSerif;
options = 1;
origin = (3,3);
type = Corner;
}
);
layerId = m01;
shapes = (
{
closed = 1;
nodes = (
(579,381,l),
(579,333,o),
(538,271,o),
(397,146,cs),
(343,98,l),
(362,69,l),
(595,300,l)
);
},
{
closed = 1;
nodes = (
(279,-20,l),
(362,69,l),
(343,700,l),
(243,700,l),
(266,-20,l)
);
},
{
closed = 1;
nodes = (
(941,685,l),
(1178,385,o),
(779,256,o),
(651,78,c),
(672,69,l),
(891,304,o),
(1237,425,o),
(1033,720,c)
);
},
{
closed = 1;
nodes = (
(589,-20,l),
(672,69,l),
(679,460,l),
(579,460,l),
(576,-20,l)
);
}
);
width = 1040;
}
);
},
{
glyphname = X.001;
lastChange = "2025-12-05 03:06:07 +0000";
layers = (
{
backgroundImage = {
angle = -90;
imagePath = "/Users/nathanlew/Documents/Desktop/Images/X_.001-Regular.tif";
locked = 1;
pos = (-313,2041);
scale = (0.8,0.8);
};
hints = (
{
name = _corner.rightSerif;
options = 1;
origin = (0,0);
type = Corner;
},
{
name = _corner.leftSerif;
origin = (0,1);
type = Corner;
},
{
name = _corner.rightSerif;
options = 1;
origin = (0,2);
type = Corner;
},
{
name = _corner.leftSerif;
origin = (0,3);
type = Corner;
}
);
layerId = m01;
shapes = (
{
closed = 1;
nodes = (
(549,0,l),
(334,700,l),
(244,700,l),
(459,0,l)
);
},
{
closed = 1;
nodes = (
(678,723,o),
(474,619,o),
(370,512,c),
(377,500,l),
(479,599,o),
(648,634,o),
(708,620,c),
(759,699,l)
);
},
{
closed = 1;
nodes = (
(141,-5,o),
(260,401,o),
(327,470,c),
(324,494,l),
(240,421,o),
(141,119,o),
(-19,119,c),
(-66,-5,l)
);
}
);
width = 720;
}
);
},
{
glyphname = X.002;
layers = (
{
backgroundImage = {
angle = -90;
imagePath = "/Users/nathanlew/Documents/Desktop/Images/X_-Regular.tif";
locked = 1;
pos = (-313,2041);
scale = (0.8,0.8);
};
hints = (
{
name = _corner.rightSerif;
options = 1;
origin = (0,0);
type = Corner;
},
{
name = _corner.leftSerif;
origin = (0,1);
type = Corner;
},
{
name = _corner.rightSerif;
options = 1;
origin = (0,2);
type = Corner;
},
{
name = _corner.leftSerif;
origin = (0,3);
type = Corner;
}
);
layerId = m01;
shapes = (
{
closed = 1;
nodes = (
(549,0,l),
(334,700,l),
(244,700,l),
(459,0,l)
);
},
{
closed = 1;
nodes = (
(642,574,o),
(474,579,o),
(370,472,c),
(377,460,l),
(479,559,o),
(760,534,o),
(683,712,c),
(584,684,l)
);
},
{
closed = 1;
nodes = (
(62,241,o),
(212,386,o),
(327,450,c),
(324,474,l),
(212,419,o),
(-48,251,o),
(-6,-30,c),
(108,12,l)
);
}
);
width = 720;
}
);
},
{
glyphname = Y.001;
lastChange = "2025-12-05 03:06:07 +0000";
layers = (
{
backgroundImage = {
angle = -90;
imagePath = "/Users/nathanlew/Documents/Desktop/Images/W_-Regular.tif";
locked = 1;
pos = (-978,1347);
scale = (0.8,0.8);
};
layerId = m01;
shapes = (
{
closed = 1;
nodes = (
(93,-5,o),
(584,450,o),
(716,725,c),
(564,659,l),
(524,423,o),
(53,43,o),
(-68,43,c),
(-90,0,l)
);
},
{
closed = 1;
nodes = (
(168,641,o),
(195,616,o),
(196,577,cs),
(197,536,o),
(133,455,o),
(132,382,cs),
(131,310,o),
(152,210,o),
(249,202,c),
(257,226,l),
(188,239,o),
(158,296,o),
(158,342,cs),
(157,449,o),
(233,525,o),
(265,571,cs),
(310,635,o),
(282,694,o),
(238,720,c),
(143,659,l)
);
}
);
width = 600;
}
);
},
{
glyphname = Y.002;
lastChange = "2025-12-05 03:06:07 +0000";
layers = (
{
backgroundImage = {
angle = -90;
imagePath = "/Users/nathanlew/Documents/Desktop/Images/W_-Regular.tif";
locked = 1;
pos = (-978,1347);
scale = (0.8,0.8);
};
layerId = m01;
shapes = (
{
closed = 1;
nodes = (
(270,-16,o),
(630,470,o),
(716,725,c),
(614,669,l),
(547,433,o),
(196,32,o),
(-80,32,c),
(-93,-11,l)
);
},
{
closed = 1;
nodes = (
(168,651,o),
(205,606,o),
(196,567,cs),
(187,527,o),
(123,465,o),
(122,392,cs),
(121,320,o),
(212,220,o),
(299,172,c),
(337,226,l),
(268,279,o),
(199,346,o),
(198,392,cs),
(197,439,o),
(241,508,o),
(275,551,cs),
(340,635,o),
(278,685,o),
(238,720,c),
(143,659,l)
);
}
);
width = 600;
}
);
},
{
glyphname = Y.003;
layers = (
{
backgroundImage = {
angle = -90;
imagePath = "/Users/nathanlew/Documents/Desktop/Images/W_-Regular.tif";
locked = 1;
pos = (-978,1347);
scale = (0.8,0.8);
};
hints = (
{
name = _corner.rightSerif;
options = 1;
origin = (0,3);
type = Corner;
},
{
name = _corner.leftSerif;
origin = (0,2);
type = Corner;
}
);
layerId = m01;
shapes = (
{
closed = 1;
nodes = (
(270,-16,o),
(678,445,o),
(764,700,c),
(719,700,l),
(652,464,o),
(196,12,o),
(-80,12,c),
(-93,-11,l)
);
},
{
closed = 1;
nodes = (
(168,651,o),
(205,606,o),
(196,567,cs),
(187,527,o),
(123,465,o),
(122,392,cs),
(121,320,o),
(212,220,o),
(299,172,c),
(347,226,l),
(278,279,o),
(209,346,o),
(208,392,cs),
(207,439,o),
(251,508,o),
(285,551,cs),
(350,635,o),
(278,685,o),
(238,720,c),
(143,659,l)
);
}
);
width = 600;
}
);
},
{
glyphname = Y.004;
layers = (
{
backgroundImage = {
angle = -90;
imagePath = "/Users/nathanlew/Documents/Desktop/Images/W_-Regular.tif";
locked = 1;
pos = (-978,1347);
scale = (0.8,0.8);
};
hints = (
{
name = _corner.leftSerif;
origin = (0,9);
type = Corner;
},
{
name = _corner.rightSerif;
options = 1;
origin = (0,10);
type = Corner;
},
{
name = _corner.rightSerif;
options = 1;
origin = (1,2);
type = Corner;
},
{
name = _corner.leftSerif;
origin = (1,1);
type = Corner;
}
);
layerId = m01;
shapes = (
{
closed = 1;
nodes = (
(179,-20,l),
(280,94,o),
(441,285,o),
(441,370,cs),
(441,465,o),
(290,468,o),
(290,597,cs),
(290,635,o),
(309,648,o),
(344,700,c),
(254,700,l),
(215,645,o),
(195,630,o),
(195,589,cs),
(195,467,o),
(337,459,o),
(337,356,cs),
(337,300,o),
(195,129,o),
(99,50,c)
);
},
{
closed = 1;
nodes = (
(179,-20,l),
(771,700,l),
(721,700,l),
(169,40,l)
);
}
);
width = 680;
}
);
},
{
glyphname = Y.005;
layers = (
{
backgroundImage = {
angle = -90;
imagePath = "/Users/nathanlew/Documents/Desktop/Images/W_-Regular.tif";
locked = 1;
pos = (-978,1347);
scale = (0.8,0.8);
};
hints = (
{
name = _corner.leftSerif;
origin = (0,4);
type = Corner;
},
{
name = _corner.rightSerif;
options = 1;
origin = (0,5);
type = Corner;
},
{
name = _corner.leftSerif;
origin = (1,3);
type = Corner;
},
{
name = _corner.leftSerif;
origin = (0,9);
type = Corner;
},
{
name = _corner.rightSerif;
options = 1;
origin = (0,0);
type = Corner;
},
{
name = _corner.rightSerif;
options = 1;
origin = (1,4);
type = Corner;
}
);
layerId = m01;
shapes = (
{
closed = 1;
nodes = (
(289,0,l),
(386,253,l),
(448,430,o),
(466,567,o),
(344,700,c),
(254,700,l),
(371,545,o),
(358,431,o),
(301,273,c),
(195,0,l)
);
},
{
closed = 1;
nodes = (
(386,253,l),
(466,453,o),
(554,592,o),
(771,700,c),
(689,700,l),
(518,596,o),
(360,358,o),
(340,267,c)
);
}
);
width = 680;
}
);
},
{
glyphname = Y.006;
layers = (
{
backgroundImage = {
angle = -90;
imagePath = "/Users/nathanlew/Documents/Desktop/Images/W_-Regular.tif";
locked = 1;
pos = (-978,1347);
scale = (0.8,0.8);
};
hints = (
{
name = _corner.leftSerif;
origin = (0,4);
type = Corner;
},
{
name = _corner.rightSerif;
options = 1;
origin = (0,5);
type = Corner;
},
{
name = _corner.leftSerif;
origin = (1,3);
type = Corner;
},
{
name = _corner.leftSerif;
origin = (0,9);
type = Corner;
},
{
name = _corner.rightSerif;
options = 1;
origin = (0,0);
type = Corner;
},
{
name = _corner.rightSerif;
options = 1;
origin = (1,4);
type = Corner;
}
);
layerId = m01;
shapes = (
{
closed = 1;
nodes = (
(279,0,l),
(376,253,l),
(398,322,o),
(466,545,o),
(324,700,c),
(234,700,l),
(351,545,o),
(335,391,o),
(261,194,c),
(189,0,l)
);
},
{
closed = 1;
nodes = (
(376,253,l),
(436,393,o),
(554,592,o),
(771,700,c),
(689,700,l),
(518,596,o),
(365,355,o),
(345,264,c)
);
}
);
width = 680;
}
);
},
{
glyphname = Y.007;
lastChange = "2025-12-21 00:38:00 +0000";
layers = (
{
backgroundImage = {
angle = 90;
imagePath = "/Users/nathanlew/Documents/GitHub/font-nouveau/font-nouveau/Images/Y_-Regular.tif";
locked = 1;
pos = (2496,-449);
scale = (0.84,0.84);
};
hints = (
{
name = _corner.rightSerif;
options = 1;
origin = (0,3);
type = Corner;
},
{
name = _corner.leftSerif;
origin = (0,2);
type = Corner;
},
{
name = _corner.leftSerif;
origin = (0,5);
type = Corner;
},
{
name = _corner.rightSerif;
options = 1;
origin = (0,0);
type = Corner;
}
);
layerId = m01;
shapes = (
{
closed = 1;
nodes = (
(369,0,l),
(451,221,l),
(333,700,l),
(236,700,l),
(360,221,l),
(282,0,l)
);
},
{
closed = 1;
nodes = (
(677,688,l),
(774,537,o),
(531,355,o),
(424,230,c),
(451,221,l),
(623,388,o),
(891,530,o),
(769,720,c)
);
},
{
alignment = -1;
pos = (293,0);
ref = _part.stem;
}
);
width = 720;
}
);
},
{
glyphname = Y.008;
kernLeft = Y;
kernRight = Y;
layers = (
{
backgroundImage = {
angle = 90;
imagePath = "/Users/nathanlew/Documents/GitHub/font-nouveau/font-nouveau/Images/Y_-Regular.tif";
locked = 1;
pos = (2471,-449);
scale = (0.84,0.84);
};
hints = (
{
name = _corner.rightSerif;
options = 1;
origin = (0,0);
type = Corner;
},
{
name = _corner.leftSerif;
origin = (0,2);
type = Corner;
},
{
name = _corner.rightSerif;
options = 1;
origin = (0,3);
type = Corner;
},
{
name = _corner.leftSerif;
origin = (0,5);
type = Corner;
}
);
layerId = m01;
shapes = (
{
closed = 1;
nodes = (
(318,0,l),
(416,281,l),
(316,700,l),
(243,700,l),
(344,283,l),
(248,0,l)
);
},
{
closed = 1;
nodes = (
(403,267,l),
(598,393,o),
(785,594,o),
(751,707,c),
(655,683,l),
(685,572,o),
(586,435,o),
(403,293,c)
);
}
);
width = 640;
}
);
},
{
glyphname = Z.001;
lastChange = "2025-12-05 03:06:07 +0000";
layers = (
{
hints = (
{
name = _corner.rightSerif;
options = 1;
origin = (0,0);
type = Corner;
},
{
name = _corner.leftSerif;
origin = (0,1);
type = Corner;
},
{
name = _corner.rightSerif;
options = 1;
origin = (0,2);
type = Corner;
},
{
name = _corner.leftSerif;
origin = (0,3);
type = Corner;
}
);
layerId = m01;
shapes = (
{
closed = 1;
nodes = (
(146,0,l),
(721,700,l),
(591,700,l),
(16,0,l)
);
},
{
closed = 1;
nodes = (
(541,700,l),
(280,700,l),
(145,561,l),
(166,561,l),
(232,626,o),
(309,680,o),
(442,680,c),
(541,680,l)
);
},
{
closed = 1;
nodes = (
(196,0,l),
(507,0,l),
(642,139,l),
(613,144,l),
(556,79,o),
(423,20,o),
(350,20,c),
(196,20,l)
);
}
);
width = 680;
}
);
},
{
glyphname = Z.002;
layers = (
{
hints = (
{
name = _corner.rightSerif;
options = 1;
origin = (0,0);
type = Corner;
},
{
name = _corner.rightSerif;
options = 1;
origin = (0,2);
type = Corner;
}
);
layerId = m01;
shapes = (
{
closed = 1;
nodes = (
(51,0,l),
(706,700,l),
(591,700,l),
(-64,0,l)
);
},
{
closed = 1;
nodes = (
(541,700,l),
(280,700,l),
(145,561,l),
(166,561,l),
(232,626,o),
(309,680,o),
(442,680,c),
(541,680,l)
);
},
{
closed = 1;
nodes = (
(316,0,l),
(473,0,o),
(542,40,o),
(627,108,c),
(553,198,l),
(438,63,o),
(373,20,o),
(280,20,c),
(96,20,l),
(96,0,l)
);
}
);
width = 680;
}
);
},
{
glyphname = Z.003;
lastChange = "2025-12-05 03:06:07 +0000";
layers = (
{
hints = (
{
name = _corner.rightSerif;
options = 1;
origin = (0,0);
type = Corner;
},
{
name = _corner.rightSerif;
options = 1;
origin = (0,2);
type = Corner;
}
);
layerId = m01;
shapes = (
{
closed = 1;
nodes = (
(146,0,l),
(721,700,l),
(591,700,l),
(16,0,l)
);
},
{
closed = 1;
nodes = (
(541,700,l),
(280,700,l),
(145,561,l),
(166,561,l),
(232,626,o),
(309,680,o),
(442,680,c),
(541,680,l)
);
},
{
closed = 1;
nodes = (
(196,0,l),
(507,0,l),
(642,139,l),
(625,144,l),
(519,63,o),
(432,20,o),
(309,20,c),
(196,20,l)
);
}
);
width = 680;
}
);
},
{
glyphname = Z.004;
lastChange = "2025-12-05 03:06:07 +0000";
layers = (
{
hints = (
{
name = _corner.rightSerif;
options = 1;
origin = (0,0);
type = Corner;
},
{
name = _corner.rightSerif;
options = 1;
origin = (0,5);
type = Corner;
}
);
layerId = m01;
shapes = (
{
closed = 1;
nodes = (
(36,0,l),
(141,233,o),
(515,597,o),
(690,640,c),
(662,700,l),
(621,700,l),
(429,637,o),
(48,253,o),
(-74,0,c)
);
},
{
closed = 1;
nodes = (
(166,561,l),
(232,626,o),
(309,680,o),
(442,680,cs),
(581,680,l),
(581,700,l),
(280,700,l),
(145,561,l)
);
},
{
closed = 1;
nodes = (
(507,0,l),
(642,139,l),
(625,144,l),
(519,63,o),
(432,20,o),
(309,20,cs),
(66,20,l),
(66,0,l)
);
}
);
width = 680;
}
);
},
{
export = 0;
glyphname = _corner.leftSerif;
kernLeft = LS;
kernRight = LS;
lastChange = "2025-12-29 21:32:09 +0000";
layers = (
{
anchors = (
{
name = left;
pos = (75,14);
},
{
name = origin;
pos = (75,0);
},
{
name = right;
pos = (82,0);
}
);
layerId = m01;
shapes = (
{
closed = 0;
nodes = (
(75,96,l),
(75,46,o),
(58,18,o),
(0,15,c),
(0,0,l),
(85,0,l)
);
}
);
width = 75;
}
);
},
{
export = 0;
glyphname = _corner.rightSerif;
kernLeft = RS;
kernRight = RS;
lastChange = "2025-12-29 21:32:01 +0000";
layers = (
{
anchors = (
{
name = left;
pos = (-7,0);
},
{
name = origin;
},
{
name = right;
pos = (0,20);
}
);
layerId = m01;
shapes = (
{
closed = 0;
nodes = (
(-10,0,l),
(75,0,l),
(75,15,l),
(17,18,o),
(0,36,o),
(0,96,c)
);
}
);
width = 75;
}
);
},
